<?xml version="1.0" standalone="no"?>
<!DOCTYPE svg PUBLIC "-//W3C//DTD SVG 20010904//EN"
 "http://www.w3.org/TR/2001/REC-SVG-20010904/DTD/svg10.dtd">
<svg version="1.0" xmlns="http://www.w3.org/2000/svg"
 width="650.000000pt" height="433.000000pt" viewBox="0 0 650.000000 433.000000"
 preserveAspectRatio="xMidYMid meet">

<g transform="translate(0.000000,433.000000) scale(0.100000,-0.100000)"
fill="#000000" stroke="none">
<path d="M0 3705 c0 -549 2 -625 15 -625 8 0 15 7 15 15 0 7 8 19 17 24 16 9
15 10 -5 11 -13 0 -20 4 -17 10 10 16 55 12 55 -5 0 -16 12 -18 48 -9 26 7 29
21 5 27 -13 3 -8 8 19 20 20 9 39 21 43 27 3 5 15 10 25 10 10 0 20 5 22 10 2
7 81 14 198 20 117 6 196 13 198 20 4 12 482 14 482 1 0 -12 214 -33 357 -34
68 -1 123 -5 123 -9 0 -5 38 -7 84 -5 53 2 83 0 79 -6 -4 -7 17 -8 58 -4 36 4
58 3 51 -2 -10 -6 -8 -10 10 -14 12 -4 33 -7 44 -7 12 0 48 -9 82 -19 33 -11
81 -23 106 -26 38 -6 45 -5 41 7 -5 11 1 14 24 10 17 -2 29 -8 26 -12 -2 -4
33 -8 78 -9 45 0 89 -3 98 -6 9 -3 28 -1 43 4 14 6 26 7 26 3 0 -5 26 -8 58
-8 31 0 89 -3 127 -7 39 -4 77 -8 85 -8 76 -3 313 -21 322 -24 18 -7 50 -65
36 -65 -5 0 -7 -7 -4 -16 4 -9 1 -24 -6 -32 -11 -13 -10 -15 5 -9 22 8 22 3 0
-19 -17 -17 -17 -18 0 -11 9 3 17 2 17 -3 0 -5 8 -7 18 -3 16 6 16 5 1 -13
-12 -13 -15 -33 -12 -66 2 -27 1 -48 -2 -48 -3 0 -17 7 -31 16 -22 15 -24 15
-18 0 3 -9 10 -16 15 -16 5 0 9 -10 8 -22 l0 -23 -9 23 c-13 32 -36 37 -76 18
-19 -9 -51 -17 -72 -17 -32 -2 -33 -2 -7 -6 17 -2 46 -6 65 -9 l35 -6 -40 -14
c-22 -7 -80 -14 -130 -15 -49 0 -99 -4 -110 -9 -13 -6 20 -9 92 -9 90 -1 115
-4 128 -18 14 -14 20 -14 38 -4 19 13 20 12 13 -34 -3 -26 -6 -69 -7 -94 0
-32 -3 -40 -8 -27 -7 18 -8 18 -14 -5 -4 -13 -7 -75 -7 -136 0 -69 -4 -113
-10 -113 -5 0 -10 -11 -10 -24 0 -22 -4 -24 -37 -23 -28 2 -38 -2 -38 -13 0
-8 -8 -14 -17 -14 -10 1 -25 2 -34 3 -9 0 -14 7 -11 14 2 6 1 19 -4 28 -6 12
-3 18 11 22 22 6 18 37 -4 37 -14 0 -14 2 -18 -97 -4 -92 -18 -107 -18 -20 0
85 -19 89 -22 5 l-1 -63 -6 58 c-3 31 -10 56 -16 55 -5 -2 -8 -14 -6 -28 3
-29 -14 -17 -22 15 -5 19 -5 19 -12 -2 -7 -21 -14 -23 -79 -24 -39 0 -127 -3
-195 -5 -93 -3 -127 -1 -133 8 -6 10 -10 10 -15 2 -12 -17 -206 -19 -201 -2 3
9 29 14 83 15 42 1 84 4 92 7 9 4 12 1 8 -7 -4 -6 0 -5 7 4 11 14 15 14 27 2
7 -8 16 -12 19 -8 4 3 0 10 -8 15 -8 6 -10 10 -4 10 6 0 17 -7 24 -15 7 -8 20
-15 29 -14 12 0 12 2 -4 10 -13 6 9 7 63 3 69 -5 82 -4 82 9 0 19 162 37 168
18 7 -21 22 -11 23 17 l1 27 8 -30 7 -30 5 30 5 30 2 -28 c1 -24 3 -26 15 -15
7 8 13 25 12 38 -1 23 2 24 47 23 37 -2 45 1 35 10 -27 25 -70 40 -120 43 -70
4 -112 9 -124 16 -5 3 -76 11 -159 18 -82 6 -154 16 -159 21 -6 5 -42 9 -80 9
-39 0 -125 7 -191 15 -66 8 -151 19 -190 24 l-70 8 65 2 c36 0 126 -6 200 -14
160 -17 275 -26 215 -16 -40 6 -39 7 25 15 36 5 56 11 46 14 -10 2 -46 -1 -78
-8 -46 -9 -82 -8 -156 1 -62 8 -90 15 -77 19 25 9 144 2 170 -11 12 -5 32 -6
50 0 28 9 29 9 5 10 -14 1 -57 8 -95 16 -39 8 -90 15 -115 15 -25 1 -67 8 -95
16 -47 14 -48 14 -10 9 22 -2 52 -7 68 -11 45 -11 30 11 -18 25 -29 8 -104 13
-210 14 -117 0 -165 3 -165 12 0 8 17 9 58 4 31 -3 64 -3 72 2 10 6 2 9 -25
10 -22 1 -44 2 -50 3 -18 3 -89 37 -95 45 -9 14 -134 41 -141 30 -4 -7 -65 -9
-175 -5 -109 3 -164 2 -154 -4 21 -14 2 -12 -45 4 -22 7 -67 12 -100 11 -57
-3 -188 16 -247 35 -25 7 -27 6 -18 -11 13 -24 -6 -26 -38 -3 -24 16 -30 52
-9 51 6 0 25 1 40 1 33 2 27 22 -6 22 -16 0 -18 3 -8 9 7 5 29 5 50 0 90 -23
138 -28 166 -21 l30 9 -37 7 c-21 4 -38 11 -38 16 0 4 -24 11 -52 15 -29 4
-70 11 -91 16 -31 8 -37 13 -32 30 4 10 2 19 -4 19 -7 0 -7 8 -1 26 6 14 10
27 10 28 0 5 -113 15 -275 24 -142 8 -195 20 -195 43 0 5 8 13 17 17 20 7 -44
20 -109 21 l-38 1 0 -95 0 -94 41 -11 c22 -6 101 -36 175 -66 75 -30 140 -51
146 -48 6 4 5 10 -3 15 -20 13 100 4 131 -10 30 -13 59 -31 78 -48 7 -7 28
-13 45 -13 43 0 103 -17 120 -34 7 -8 65 -24 128 -36 62 -12 123 -29 134 -36
17 -12 11 -14 -60 -14 -81 0 -259 19 -251 27 5 5 33 11 55 12 11 1 9 6 -6 20
-17 16 -36 19 -114 20 -114 0 -259 18 -317 38 -23 8 -48 13 -55 10 -16 -6 59
-37 90 -37 14 0 22 -4 18 -11 -4 -5 -20 -8 -36 -5 -16 3 -43 9 -59 12 -17 3
-28 10 -24 15 3 5 0 9 -6 9 -6 0 -9 4 -6 9 8 13 -46 21 -140 21 l-84 0 0 -245
0 -245 523 -3 522 -2 -522 -3 -523 -2 0 -1015 c0 -558 2 -1015 5 -1015 4 0 19
7 35 15 30 16 40 9 19 -12 -6 -6 -18 -9 -25 -6 -10 4 -14 -3 -14 -23 0 -23 -2
-26 -10 -14 -7 11 -10 -1 -10 -42 0 -67 8 -97 21 -76 6 9 9 10 9 1 0 -10 235
-13 1103 -13 l1102 0 0 66 c0 36 3 71 7 77 4 7 8 -23 8 -65 l0 -78 1786 0
c1429 0 1784 2 1778 12 -6 10 -4 11 7 0 9 -9 62 -12 188 -12 l175 0 -27 28
c-15 16 -24 32 -20 37 5 4 3 6 -2 2 -6 -3 -17 -2 -25 4 -11 6 -6 9 17 9 23 0
31 -4 27 -13 -3 -8 2 -20 11 -27 8 -7 15 -9 15 -4 0 5 7 -1 15 -13 13 -19 25
-21 120 -22 58 -1 105 1 105 4 0 3 -11 10 -25 15 -14 5 -25 16 -25 24 0 8 -6
17 -12 19 -8 4 -7 6 4 6 9 1 18 -3 20 -7 7 -18 76 -62 96 -62 l22 0 0 814 0
814 -32 4 c-18 3 -40 8 -49 12 -12 5 -20 -2 -32 -26 -10 -20 -17 -26 -17 -15
0 10 -8 17 -20 17 -11 0 -20 -6 -20 -12 0 -7 -7 -2 -16 11 -12 16 -19 20 -27
12 -16 -16 -27 -13 -20 6 4 11 3 14 -5 9 -8 -5 -12 1 -12 19 0 25 -1 25 -61
20 -38 -3 -58 -1 -54 5 3 6 -1 10 -9 10 -11 0 -16 -9 -16 -30 0 -20 -5 -30
-15 -30 -10 0 -15 11 -15 35 l0 34 -40 -14 c-22 -8 -40 -10 -40 -5 0 6 -16 10
-35 10 -19 0 -35 5 -35 11 0 11 -32 10 -122 -4 -23 -3 -27 -1 -25 17 1 12 -5
22 -15 24 -10 2 -18 -2 -18 -8 0 -6 5 -8 12 -4 7 4 8 3 4 -4 -4 -7 -21 -12
-37 -12 -17 0 -28 -4 -25 -9 3 -5 -6 -8 -20 -8 -23 0 -24 1 -8 18 15 16 15 17
-5 12 -12 -3 -21 -9 -21 -14 0 -5 -13 -9 -30 -9 -28 0 -30 3 -30 36 0 19 4 33
9 30 5 -3 14 1 21 9 7 8 20 15 28 15 13 0 12 -3 -3 -14 -19 -13 -18 -14 7 -13
14 1 24 5 22 8 -4 7 20 19 38 19 6 0 5 -6 -2 -15 -11 -13 -8 -15 22 -13 48 4
45 32 -3 36 -19 1 -47 8 -64 15 -29 12 -28 12 35 18 56 5 51 6 -33 5 -55 0
-94 -2 -88 -4 22 -7 10 -17 -19 -16 -63 3 -70 4 -70 14 0 5 8 7 18 3 10 -4 14
-2 9 3 -5 5 -18 9 -30 10 -12 0 -65 4 -117 7 -52 4 -132 9 -177 11 -89 4 -136
19 -90 28 15 3 24 1 21 -3 -3 -5 17 -9 44 -9 27 0 65 -3 83 -6 26 -4 31 -3 19
5 -12 9 -8 10 15 5 16 -4 71 -8 122 -8 55 0 89 -4 86 -10 -3 -5 -1 -6 6 -2 19
12 93 17 86 6 -3 -6 1 -10 9 -10 9 0 16 5 16 10 0 6 40 9 103 9 56 -1 92 -4
80 -6 -34 -7 -17 -29 24 -31 21 -2 38 -4 40 -5 1 -2 -4 -16 -12 -31 -21 -39
-19 -43 17 -48 40 -6 70 1 61 15 -4 6 2 8 15 5 12 -4 20 -2 16 3 -3 5 5 10 18
10 17 1 18 3 6 6 -10 2 -18 9 -18 15 0 12 164 3 235 -12 74 -16 232 -23 239
-11 4 6 20 11 37 11 l29 0 0 185 -1 185 -269 0 c-163 0 -270 4 -272 10 -1 5
-20 11 -41 14 -29 3 -40 1 -44 -11 -6 -15 -41 -15 -342 -10 -185 4 -637 7
-1006 7 l-670 1 -5 -68 -5 -68 -9 52 c-4 29 -13 125 -20 213 -11 151 -11 160
6 160 10 0 18 5 18 10 0 6 -7 10 -15 10 -12 0 -15 17 -17 88 l-1 87 -6 -81
c-4 -55 -11 -86 -22 -97 -9 -9 -19 -13 -23 -10 -3 4 -6 -62 -6 -145 l0 -152
-61 0 c-33 0 -69 5 -80 10 -11 6 -25 7 -32 3 -22 -14 -60 -14 -69 -1 -6 8 -7
4 -2 -12 6 -21 5 -23 -8 -12 -11 9 -14 25 -10 57 3 30 1 45 -7 45 -6 0 -11 11
-11 24 0 13 -10 31 -22 40 l-23 17 24 -5 c15 -3 35 3 54 16 24 17 33 19 48 10
26 -16 37 -15 42 6 4 16 5 16 6 0 1 -14 10 -18 40 -18 46 0 65 17 47 42 -9 12
-24 15 -66 12 -30 -2 -97 -1 -147 2 -90 6 -93 7 -93 30 0 20 5 24 33 25 28 0
26 2 -23 18 -30 10 -54 20 -52 22 2 2 -2 18 -8 34 -6 17 -10 42 -7 58 2 15 0
27 -5 27 -4 0 -8 9 -8 21 0 16 4 19 18 14 41 -16 138 -24 177 -14 22 6 59 8
83 5 27 -4 41 -2 37 4 -3 6 -17 10 -31 10 -13 0 -24 5 -24 10 0 6 7 10 15 10
22 0 18 23 -5 38 -17 10 -163 31 -222 32 -26 0 -22 -18 5 -23 12 -2 9 -3 -8
-1 -16 2 -46 6 -65 10 -29 5 -33 4 -22 -7 6 -7 12 -18 12 -23 0 -6 -7 0 -16
13 -13 18 -19 20 -26 10 -7 -11 -8 -9 -4 4 3 10 6 24 6 30 0 7 4 6 10 -3 6
-10 10 -11 10 -2 0 6 5 12 11 12 5 0 7 -4 4 -10 -9 -14 8 -12 41 5 l29 15 -35
1 c-32 2 -33 2 -6 6 l28 5 -23 16 c-25 17 -28 19 -54 21 -15 1 -21 36 -7 44 4
2 1 2 -5 1 -7 -2 -13 3 -13 11 0 8 7 15 15 15 8 0 15 5 15 10 0 6 -7 10 -15
10 -12 0 -15 13 -15 55 0 67 8 72 93 56 34 -7 105 -19 157 -27 52 -8 105 -17
118 -19 13 -2 29 -9 37 -15 16 -13 50 -6 41 8 -13 22 20 42 72 43 57 2 75 15
48 34 -15 12 -15 13 1 20 17 7 17 8 -2 15 -29 12 -35 12 -35 -5 0 -10 -8 -6
-25 10 -18 19 -35 25 -70 25 -33 0 -45 4 -45 15 0 18 46 21 53 3 4 -8 6 -7 6
3 1 22 22 29 83 29 31 0 55 6 64 15 9 8 30 15 47 15 24 0 28 3 17 10 -8 5 -26
10 -40 10 -15 0 -31 5 -37 11 -6 6 -47 17 -92 25 -57 10 -88 21 -103 36 -17
17 -18 20 -4 15 10 -4 50 -10 89 -13 54 -4 68 -3 57 5 -12 9 -10 11 10 7 47
-9 96 -16 220 -32 216 -28 234 -31 260 -43 23 -10 23 -11 3 -7 -27 5 -40 -9
-17 -18 9 -3 30 -6 49 -6 18 0 49 -7 68 -15 20 -8 47 -15 59 -14 21 0 21 1 4
8 -15 6 -16 10 -7 16 11 6 11 9 0 16 -11 8 -11 11 4 20 9 6 15 14 12 20 -4 5
8 9 26 9 18 0 30 3 27 6 -3 3 -25 5 -49 5 -24 0 -53 3 -64 6 -20 6 -20 6 -1
13 18 6 16 8 -12 23 -18 8 -32 11 -32 7 0 -5 -21 0 -46 10 -25 11 -61 20 -80
20 -19 0 -34 5 -34 10 0 6 -12 10 -27 10 -22 0 -25 -2 -13 -10 12 -8 11 -10
-7 -10 -12 0 -30 -3 -40 -6 -15 -5 -15 -4 -3 5 8 6 13 11 10 12 -3 0 -18 2
-34 4 -35 5 -60 25 -31 25 16 0 17 2 6 9 -8 5 -20 7 -28 4 -7 -3 -16 2 -19 11
-5 13 -21 15 -92 12 -48 -1 -76 1 -62 5 21 6 17 7 -17 8 -24 1 -43 5 -43 11 0
15 303 11 399 -6 46 -8 93 -14 104 -14 38 0 11 10 -54 19 -35 5 -84 19 -109
30 -25 12 -34 18 -20 14 14 -4 39 -8 57 -8 17 0 29 -3 27 -7 -3 -4 38 -5 89
-1 65 4 96 2 101 -6 4 -6 18 -11 31 -11 13 0 27 -5 30 -10 4 -6 9 -8 13 -6 4
2 16 -3 27 -11 18 -14 15 -15 -37 -8 -35 4 -58 3 -58 -3 0 -12 24 -22 53 -22
20 -1 21 -2 5 -14 -10 -7 -18 -19 -18 -27 1 -10 3 -10 10 3 11 17 79 30 162
30 26 0 51 4 54 9 3 5 31 9 64 9 42 0 59 -4 64 -15 3 -8 12 -12 20 -9 18 7
156 -22 202 -41 18 -8 55 -12 88 -10 31 2 56 0 56 -4 0 -5 38 -8 84 -7 46 1
82 -2 79 -6 -4 -7 135 -14 162 -8 5 1 7 -2 3 -6 -8 -7 36 -34 56 -34 16 0 115
63 116 74 0 4 -17 6 -37 3 -21 -3 -30 -3 -20 -1 9 3 17 11 17 19 0 7 6 18 14
25 16 13 10 41 -8 39 -6 -1 -27 0 -46 1 -25 2 -29 4 -12 7 28 6 28 20 0 26
l-23 4 22 8 c30 10 19 25 -16 25 -16 0 -34 7 -41 15 -7 9 -21 13 -31 10 -13
-5 -19 -1 -19 10 0 9 4 14 8 11 5 -3 9 1 9 8 0 8 -17 19 -37 26 -34 11 -36 14
-34 52 2 51 23 72 70 70 50 -2 53 -8 13 -25 l-34 -14 50 5 c46 5 49 4 36 -11
-9 -12 -10 -17 -2 -17 6 0 14 6 17 14 9 24 34 6 34 -25 0 -16 3 -28 8 -28 20
3 25 -2 12 -12 -11 -8 -7 -9 19 -5 18 3 47 6 63 6 25 0 29 3 25 19 -4 15 2 20
26 25 24 5 28 9 19 18 -19 19 -14 46 10 54 22 7 48 28 48 38 0 3 -9 6 -21 6
-11 0 -17 4 -14 10 3 5 -6 12 -20 16 -19 5 -24 11 -20 25 5 13 1 19 -10 19
-11 0 -15 -5 -12 -14 4 -10 0 -12 -14 -9 -14 4 -17 9 -9 18 5 6 6 16 2 20 -4
5 1 5 11 2 13 -5 17 -3 14 5 -2 7 -11 12 -21 10 -25 -4 -19 14 12 38 23 19 36
21 87 17 33 -2 67 -6 75 -8 9 -3 14 2 12 12 -1 8 9 26 23 39 14 13 25 20 25
16 0 -5 7 -3 14 4 11 8 12 18 5 36 -5 14 -9 35 -9 48 0 23 -44 46 -88 46 -11
0 -30 13 -41 29 l-21 29 22 -5 c13 -3 28 -10 34 -15 7 -5 22 -4 35 1 25 10 24
11 -28 27 -20 6 -15 24 6 24 28 0 35 17 10 25 -12 4 -27 1 -37 -8 -9 -7 -25
-17 -36 -21 -14 -5 -17 -14 -14 -36 2 -16 1 -27 -3 -24 -4 2 -15 -3 -24 -12
-9 -9 -17 -15 -18 -13 -1 2 -8 13 -15 24 -39 64 -33 87 38 152 l35 32 -2882 1
-2883 0 0 -625z m2235 429 c12 -5 14 -9 4 -14 -14 -9 -39 -2 -39 11 0 11 12
11 35 3z m-161 -23 c13 -21 -8 -40 -50 -47 -47 -7 -98 5 -59 14 11 2 31 13 45
23 27 20 55 24 64 10z m3680 -17 c4 -9 4 -19 2 -22 -10 -9 -36 8 -36 23 0 20
26 19 34 -1z m-3984 -64 c11 -7 -1 -10 -40 -9 -40 0 -49 3 -35 9 27 12 57 12
75 0z m-117 -15 c20 -8 51 -15 69 -15 22 0 28 -3 20 -9 -13 -8 51 -21 106 -21
46 0 8 15 -53 20 -14 2 -11 4 10 9 17 4 29 12 28 17 -1 6 15 9 40 7 23 -1 77
-4 119 -6 42 -1 80 -6 84 -10 4 -4 -1 -7 -10 -7 -12 0 -16 -5 -13 -14 3 -8 0
-19 -6 -24 -21 -17 -268 -15 -353 3 -42 9 -84 13 -93 11 -9 -3 -32 -1 -51 3
-19 5 -27 9 -17 10 9 1 17 7 17 15 0 27 53 32 103 11z m3072 5 c3 -5 1 -10 -4
-10 -6 0 -11 5 -11 10 0 6 2 10 4 10 3 0 8 -4 11 -10z m-3285 -60 c12 -8 11
-10 -7 -10 -12 0 -25 5 -28 10 -8 13 15 13 35 0z m4320 -5 c0 -8 -7 -15 -15
-15 -8 0 -15 7 -15 15 0 8 7 15 15 15 8 0 15 -7 15 -15z m-2045 -105 c-7 -11
35 -9 215 6 41 4 72 4 69 0 -8 -8 -78 -21 -224 -41 -60 -8 -138 -20 -171 -25
-34 -6 -84 -10 -113 -10 -43 0 -51 3 -51 19 0 16 5 17 38 12 20 -4 53 -3 72 2
19 5 49 9 65 8 17 0 44 8 60 18 34 22 49 26 40 11z m-444 -57 c0 -15 2 -15 9
2 7 15 9 16 9 4 1 -13 15 -18 57 -24 31 -4 54 -8 52 -10 -4 -4 -199 -19 -388
-31 -89 -5 -95 7 -10 21 25 4 50 11 55 15 6 4 46 10 90 14 43 3 84 11 89 16
16 16 36 12 37 -7z m-341 -35 c-53 -11 -109 -17 -127 -13 -58 11 -35 23 43 23
41 0 78 3 81 6 4 3 27 6 52 5 40 -1 33 -4 -49 -21z m743 15 c-7 -2 -19 -2 -25
0 -7 3 -2 5 12 5 14 0 19 -2 13 -5z m95 0 c-16 -2 -40 -2 -55 0 -16 2 -3 4 27
4 30 0 43 -2 28 -4z m130 0 c-15 -2 -42 -2 -60 0 -18 2 -6 4 27 4 33 0 48 -2
33 -4z m1802 -45 c0 -10 -4 -18 -10 -18 -5 0 -10 15 -10 33 0 24 3 28 10 17 5
-8 10 -23 10 -32z m-3346 -43 c3 -8 2 -15 -3 -15 -5 0 -14 7 -21 15 -10 12
-10 15 3 15 8 0 17 -7 21 -15z m1092 -5 c41 0 74 -4 74 -9 0 -12 -149 -2 -170
11 -12 8 -11 8 3 4 10 -3 52 -6 93 -6z m-1031 -10 c-3 -5 -13 -10 -21 -10 -8
0 -14 5 -14 10 0 6 9 10 21 10 11 0 17 -4 14 -10z m1489 -10 c26 -11 -216 -13
-305 -3 -55 6 -59 8 -29 13 50 7 310 0 334 -10z m-1784 -10 c0 -5 -4 -10 -10
-10 -5 0 -10 5 -10 10 0 6 5 10 10 10 6 0 10 -4 10 -10z m2730 -10 c-36 -20
-80 -26 -80 -11 0 10 56 29 90 30 23 0 22 -1 -10 -19z m269 -6 c2 -2 -25 -4
-60 -4 -39 0 -59 4 -51 9 13 8 101 3 111 -5z m-3430 -15 c-22 -13 -31 -11 -17
5 7 8 17 12 22 9 4 -3 2 -9 -5 -14z m131 -7 c33 -9 31 -10 -27 -11 -52 -1 -63
2 -63 15 0 17 15 16 90 -4z m389 -8 c12 -11 -12 -13 -70 -7 l-64 8 45 6 c41 5
79 2 89 -7z m2878 -16 c6 -5 17 -8 25 -7 24 3 38 -1 38 -11 0 -24 -106 -5
-113 20 -3 14 0 16 17 12 11 -3 26 -9 33 -14z m153 -46 c20 -16 21 -19 7 -25
-10 -4 -17 -2 -17 3 0 6 -13 10 -30 10 -29 0 -38 9 -23 23 12 12 40 7 63 -11z
m-2093 -134 c-2 -24 -4 -7 -4 37 0 44 2 63 4 43 2 -21 2 -57 0 -80z m57 44
c10 -2 25 -1 34 3 34 13 162 12 162 0 0 -17 78 -35 174 -41 93 -6 226 -33 226
-47 0 -9 -45 -5 -115 9 -16 3 -52 7 -80 8 -27 2 -130 9 -228 16 -151 12 -175
15 -155 26 l22 12 -24 4 c-22 3 -27 -3 -37 -37 -11 -40 -11 -39 -11 30 0 40 3
59 7 45 3 -14 14 -26 25 -28z m309 1 c-7 -2 -19 -2 -25 0 -7 3 -2 5 12 5 14 0
19 -2 13 -5z m80 -10 c-7 -2 -21 -2 -30 0 -10 3 -4 5 12 5 17 0 24 -2 18 -5z
m-473 -13 c0 -5 -7 -10 -15 -10 -8 0 -15 5 -15 10 0 6 7 10 15 10 8 0 15 -4
15 -10z m800 0 c0 -5 -4 -10 -9 -10 -6 0 -13 5 -16 10 -3 6 1 10 9 10 9 0 16
-4 16 -10z m1177 -6 c-3 -3 -12 -4 -19 -1 -8 3 -5 6 6 6 11 1 17 -2 13 -5z
m42 -40 c-15 -18 -39 -18 -39 -1 0 20 9 25 31 20 15 -4 17 -8 8 -19z m-1214
-24 c18 -1 19 -1 3 -11 -19 -11 -88 -2 -88 11 0 4 15 6 33 4 17 -1 41 -3 52
-4z m1625 -20 c0 -5 -7 -10 -16 -10 -8 0 -12 5 -9 10 3 6 10 10 16 10 5 0 9
-4 9 -10z m-4340 -20 c0 -5 -20 -10 -45 -10 -25 0 -45 5 -45 10 0 6 20 10 45
10 25 0 45 -4 45 -10z m2863 -7 c-7 -2 -21 -2 -30 0 -10 3 -4 5 12 5 17 0 24
-2 18 -5z m194 -9 c-3 -3 -12 -4 -19 -1 -8 3 -5 6 6 6 11 1 17 -2 13 -5z m113
-54 c0 -5 -4 -10 -9 -10 -6 0 -13 5 -16 10 -3 6 1 10 9 10 9 0 16 -4 16 -10z
m-622 -19 c32 -1 44 -15 20 -23 -18 -6 -98 11 -98 21 0 5 10 7 23 6 12 -1 37
-3 55 -4z m-563 -121 c3 -5 1 -10 -4 -10 -6 0 -11 5 -11 10 0 6 2 10 4 10 3 0
8 -4 11 -10z m18 -142 c-6 -116 -11 -120 -12 -10 -1 50 3 92 7 92 5 0 7 -37 5
-82z m-6 -130 c-3 -8 -6 -5 -6 6 -1 11 2 17 5 13 3 -3 4 -12 1 -19z m-2814
-55 c-7 -2 -21 -2 -30 0 -10 3 -4 5 12 5 17 0 24 -2 18 -5z m2651 -2 c3 -4 -6
-6 -19 -3 -14 2 -25 6 -25 8 0 8 39 4 44 -5z m-4 -31 c0 -5 -7 -10 -16 -10 -8
0 -12 5 -9 10 3 6 10 10 16 10 5 0 9 -4 9 -10z m-5 -58 c-3 -3 -11 0 -18 7 -9
10 -8 11 6 5 10 -3 15 -9 12 -12z m-1635 -121 c-39 -5 -31 -7 55 -14 98 -8
114 -11 102 -23 -9 -9 -221 15 -271 31 -39 13 -37 13 59 13 69 -1 86 -3 55 -7z
m1917 -33 c-3 -8 -6 -5 -6 6 -1 11 2 17 5 13 3 -3 4 -12 1 -19z m-1930 -14
c-3 -3 -12 -4 -19 -1 -8 3 -5 6 6 6 11 1 17 -2 13 -5z m466 -1 c-13 -2 -33 -2
-45 0 -13 2 -3 4 22 4 25 0 35 -2 23 -4z m-1743 -13 c11 -7 5 -10 -22 -10 -21
0 -38 5 -38 10 0 13 40 13 60 0z m153 -10 c31 0 57 -4 57 -8 0 -10 -118 -2
-145 10 -17 7 -16 8 5 3 14 -2 51 -5 83 -5z m1197 -11 c19 -6 95 -13 168 -16
72 -3 132 -10 132 -14 0 -5 35 -9 78 -10 42 0 86 -4 97 -9 12 -5 -51 -8 -153
-9 -96 -1 -181 -5 -190 -10 -11 -6 46 -10 158 -11 130 0 185 -5 215 -16 l40
-15 -65 7 c-53 5 -325 12 -707 18 -33 1 -59 4 -56 9 7 12 -35 8 -49 -6 -7 -7
-31 -14 -52 -16 -22 -1 -50 -7 -63 -12 -44 -17 -149 -7 -137 12 3 5 29 9 57
10 159 3 123 14 -45 14 -151 1 -201 4 -210 14 -11 11 -5 12 32 7 41 -5 251 -8
308 -3 44 3 21 19 -25 17 -69 -4 -183 2 -150 7 15 2 25 8 22 13 -3 4 41 7 98
5 56 -2 133 -3 171 -4 62 -1 68 -3 51 -15 -16 -11 -1 -14 116 -20 74 -4 153
-9 177 -13 29 -3 42 -2 42 6 0 7 -4 10 -8 7 -4 -2 -14 0 -22 5 -11 8 -4 9 23
4 21 -3 37 -2 37 3 0 14 -68 20 -80 8 -11 -11 -110 -9 -160 4 -25 7 -6 8 63 4
56 -3 97 -1 97 4 0 5 -60 16 -132 25 l-133 15 110 -5 c61 -2 126 -9 145 -14z
m-792 4 c-10 -2 -26 -2 -35 0 -10 3 -2 5 17 5 19 0 27 -2 18 -5z m2682 -103
c0 -67 -4 -110 -10 -110 -11 0 -14 202 -3 213 12 13 13 7 13 -103z m-2567 93
c-13 -2 -35 -2 -50 0 -16 2 -5 4 22 4 28 0 40 -2 28 -4z m54 -9 c-3 -3 -12 -4
-19 -1 -8 3 -5 6 6 6 11 1 17 -2 13 -5z m1448 -65 l40 -1 -50 -14 c-36 -10
-71 -12 -125 -7 -42 4 -62 9 -46 11 23 3 26 6 15 14 -10 6 8 8 56 4 39 -3 88
-6 110 -7z m-125 -49 c0 -5 -6 -10 -14 -10 -8 0 -18 5 -21 10 -3 6 3 10 14 10
12 0 21 -4 21 -10z m1252 -39 c-2 -17 -8 -28 -13 -25 -5 3 -9 -12 -10 -33 l-1
-38 -10 34 c-8 29 -7 36 7 44 14 8 15 11 4 18 -10 6 -11 9 -1 9 6 0 12 7 12
16 0 8 4 13 8 10 5 -3 7 -19 4 -35z m-1295 13 c-7 -8 -108 -7 -115 1 -3 3 23
5 58 5 35 0 60 -3 57 -6z m263 -8 c14 -2 -12 -4 -57 -5 -46 0 -83 2 -83 7 0 6
81 6 140 -2z m243 -3 c-13 -2 -33 -2 -45 0 -13 2 -3 4 22 4 25 0 35 -2 23 -4z
m34 -15 c-3 -8 -6 -5 -6 6 -1 11 2 17 5 13 3 -3 4 -12 1 -19z m-673 -43 c-9
-14 -19 -23 -22 -20 -5 4 26 45 35 45 2 0 -4 -11 -13 -25z m1383 -187 c-4
-106 -7 -347 -7 -535 0 -201 -4 -343 -9 -343 -6 0 -8 93 -5 228 2 125 4 365 4
535 0 225 3 307 12 307 8 0 9 -50 5 -192z m-1532 154 c-3 -3 -11 0 -18 7 -9
10 -8 11 6 5 10 -3 15 -9 12 -12z m-558 2 c-3 -3 -12 -4 -19 -1 -8 3 -5 6 6 6
11 1 17 -2 13 -5z m499 -6 c5 -7 3 -8 -6 -3 -8 5 -18 1 -27 -10 -7 -11 -13
-14 -13 -9 0 12 21 34 31 34 4 0 11 -5 15 -12z m272 -2 c-10 -7 -15 -16 -11
-19 3 -4 1 -7 -5 -7 -13 0 -16 22 -5 33 3 4 13 7 22 7 14 -1 14 -2 -1 -14z
m-241 -18 c-3 -8 -6 -5 -6 6 -1 11 2 17 5 13 3 -3 4 -12 1 -19z m197 7 c3 -9
0 -15 -10 -15 -8 0 -12 5 -9 10 8 14 -18 13 -32 -1 -13 -13 -36 -3 -28 12 10
15 72 11 79 -6z m-314 -5 c0 -6 -101 -9 -287 -8 l-288 3 285 5 c157 3 286 6
288 8 1 1 2 -2 2 -8z m1875 -40 c-3 -5 -12 -10 -18 -10 -7 0 -6 4 3 10 19 12
23 12 15 0z m57 -78 c2 -28 0 -52 -4 -52 -5 0 -7 33 -7 73 2 76 6 68 11 -21z
m2328 78 c0 -5 -2 -10 -4 -10 -3 0 -8 5 -11 10 -3 6 -1 10 4 10 6 0 11 -4 11
-10z m-3125 -10 c3 -6 -1 -7 -9 -4 -18 7 -21 14 -7 14 6 0 13 -4 16 -10z
m-907 -69 c6 -1 12 -9 11 -18 0 -11 -3 -13 -6 -5 -2 6 -18 12 -34 12 -16 0
-29 4 -29 8 0 5 10 8 23 6 12 -1 28 -3 35 -3z m1729 -33 c-3 -7 -5 -2 -5 12 0
14 2 19 5 13 2 -7 2 -19 0 -25z m2210 26 c-3 -3 -12 -4 -19 -1 -8 3 -5 6 6 6
11 1 17 -2 13 -5z m316 -1 c-7 -2 -19 -2 -25 0 -7 3 -2 5 12 5 14 0 19 -2 13
-5z m95 0 c-10 -2 -28 -2 -40 0 -13 2 -5 4 17 4 22 1 32 -1 23 -4z m59 1 c-3
-3 -12 -4 -19 -1 -8 3 -5 6 6 6 11 1 17 -2 13 -5z m-5441 -41 c-11 -11 -17 4
-9 23 7 18 8 18 11 1 2 -10 1 -21 -2 -24z m814 27 c0 -5 -8 -10 -17 -10 -15 0
-16 2 -3 10 19 12 20 12 20 0z m2480 -19 c-6 -12 -15 -19 -20 -16 -5 3 -2 14
8 24 22 22 27 19 12 -8z m-3320 3 c0 -17 -22 -14 -28 4 -2 7 3 12 12 12 9 0
16 -7 16 -16z m610 6 c0 -5 -5 -10 -11 -10 -5 0 -7 5 -4 10 3 6 8 10 11 10 2
0 4 -4 4 -10z m-1350 -15 c19 -22 8 -25 -12 -3 -10 10 -14 18 -9 18 5 0 14 -7
21 -15z m267 -7 c-3 -8 -6 -5 -6 6 -1 11 2 17 5 13 3 -3 4 -12 1 -19z m3554
-8 c21 0 24 -16 9 -40 -8 -12 -10 -11 -10 8 0 12 -4 22 -9 22 -12 0 -1 -42 13
-53 8 -6 7 -10 -3 -14 -11 -5 -11 -7 0 -14 11 -7 10 -9 -3 -9 -11 0 -18 7 -18
19 0 10 -2 40 -5 67 -2 27 -2 41 1 32 3 -10 14 -18 25 -18z m-3221 10 c0 -5
-4 -10 -10 -10 -5 0 -10 5 -10 10 0 6 5 10 10 10 6 0 10 -4 10 -10z m560 0 c0
-5 -4 -10 -10 -10 -5 0 -10 5 -10 10 0 6 5 10 10 10 6 0 10 -4 10 -10z m360 0
c0 -5 -2 -10 -4 -10 -3 0 -8 5 -11 10 -3 6 -1 10 4 10 6 0 11 -4 11 -10z
m-1423 -6 c-3 -3 -12 -4 -19 -1 -8 3 -5 6 6 6 11 1 17 -2 13 -5z m549 -31
c-11 -11 -17 4 -9 23 7 18 8 18 11 1 2 -10 1 -21 -2 -24z m187 22 c-3 -9 -8
-14 -10 -11 -3 3 -2 9 2 15 9 16 15 13 8 -4z m227 11 c0 -3 -4 -8 -10 -11 -5
-3 -10 -1 -10 4 0 6 5 11 10 11 6 0 10 -2 10 -4z m37 -2 c-3 -3 -12 -4 -19 -1
-8 3 -5 6 6 6 11 1 17 -2 13 -5z m-1027 -24 c0 -12 -8 -12 -35 0 -18 8 -17 9
8 9 15 1 27 -3 27 -9z m3980 -6 c0 -8 -4 -12 -10 -9 -5 3 -10 10 -10 16 0 5 5
9 10 9 6 0 10 -7 10 -16z m1690 7 c0 -11 -149 -24 -205 -19 -28 3 -19 5 28 6
43 1 66 6 62 12 -4 6 17 10 54 10 34 0 61 -4 61 -9z m170 -3 c0 -5 -6 -8 -12
-9 -7 0 -21 -2 -30 -4 -17 -3 -24 6 -14 16 8 7 56 4 56 -3z m-4280 -19 c11
-19 10 -20 -10 -9 -11 6 -18 15 -15 21 9 13 13 11 25 -12z m355 12 c-3 -5 5
-11 17 -14 22 -3 22 -4 3 -12 -11 -5 -23 -13 -27 -19 -4 -6 -5 3 -3 19 5 37 4
35 11 35 3 0 3 -4 -1 -9z m4005 -1 c0 -5 -4 -10 -10 -10 -5 0 -10 5 -10 10 0
6 5 10 10 10 6 0 10 -4 10 -10z m-4818 -25 c3 -14 1 -28 -3 -31 -5 -3 -9 9 -9
25 0 38 6 40 12 6z m951 -3 c-2 -48 -3 -55 -7 -51 -2 2 -7 21 -10 42 -5 28 -3
38 6 35 7 -3 12 -14 11 -26z m2164 22 c-3 -3 -12 -4 -19 -1 -8 3 -5 6 6 6 11
1 17 -2 13 -5z m330 0 c-3 -3 -12 -4 -19 -1 -8 3 -5 6 6 6 11 1 17 -2 13 -5z
m1738 -4 c8 -13 -5 -13 -25 0 -13 8 -13 10 2 10 9 0 20 -4 23 -10z m-4878 -6
c-3 -3 -12 -4 -19 -1 -8 3 -5 6 6 6 11 1 17 -2 13 -5z m366 -1 c-7 -2 -21 -2
-30 0 -10 3 -4 5 12 5 17 0 24 -2 18 -5z m2475 -38 c0 -25 -4 -42 -7 -39 -10
9 -10 84 0 84 5 0 8 -20 7 -45z m69 13 c-3 -7 -5 -2 -5 12 0 14 2 19 5 13 2
-7 2 -19 0 -25z m146 25 c-24 -2 -62 -2 -85 0 -24 2 -5 4 42 4 47 0 66 -2 43
-4z m1017 -12 c101 -14 130 -21 130 -30 0 -8 1 -8 -90 -15 -109 -8 -230 -9
-237 -2 -6 6 124 11 212 8 34 -1 36 0 15 8 -14 4 -85 8 -159 9 -139 1 -176 9
-58 12 89 2 73 17 -23 22 -41 2 -28 3 30 1 58 -1 139 -7 180 -13z m123 2 c-7
-2 -19 -2 -25 0 -7 3 -2 5 12 5 14 0 19 -2 13 -5z m-773 -13 c-25 -15 -93 -22
-120 -11 -20 8 -14 9 38 9 35 0 66 3 69 6 4 3 11 6 17 6 6 0 4 -5 -4 -10z
m-3493 -16 c-3 -3 -12 -4 -19 -1 -8 3 -5 6 6 6 11 1 17 -2 13 -5z m1073 -24
c0 -5 -5 -10 -11 -10 -5 0 -7 5 -4 10 3 6 8 10 11 10 2 0 4 -4 4 -10z m2747 4
c-3 -3 -12 -4 -19 -1 -8 3 -5 6 6 6 11 1 17 -2 13 -5z m-840 -26 c-3 -8 -6 -5
-6 6 -1 11 2 17 5 13 3 -3 4 -12 1 -19z m138 12 c-3 -5 -18 -10 -33 -10 -22 0
-24 -2 -12 -11 12 -9 12 -10 -3 -5 -10 3 -30 6 -43 6 -28 0 -32 16 -6 23 34 9
103 7 97 -3z m525 6 c0 -3 -4 -8 -10 -11 -5 -3 -10 -1 -10 4 0 6 5 11 10 11 6
0 10 -2 10 -4z m-377 -13 c-7 -2 -21 -2 -30 0 -10 3 -4 5 12 5 17 0 24 -2 18
-5z m122 -3 c3 -5 1 -10 -4 -10 -6 0 -11 5 -11 10 0 6 2 10 4 10 3 0 8 -4 11
-10z m80 0 c3 -5 -3 -10 -15 -10 -12 0 -18 5 -15 10 3 6 10 10 15 10 5 0 12
-4 15 -10z m-3164 -144 c10 -33 18 -60 16 -61 -1 -2 -12 -6 -24 -9 -22 -7 -23
-6 -23 71 0 43 -2 89 -5 103 -3 14 0 9 6 -10 6 -19 20 -62 30 -94z m434 57
c17 -70 17 -73 6 -73 -5 0 -12 21 -16 48 -3 26 -9 58 -12 72 -3 14 -3 22 1 18
4 -3 14 -32 21 -65z m2438 60 c-13 -2 -33 -2 -45 0 -13 2 -3 4 22 4 25 0 35
-2 23 -4z m247 -8 c0 -8 -4 -15 -10 -15 -5 0 -7 7 -4 15 4 8 8 15 10 15 2 0 4
-7 4 -15z m-186 -4 c4 -5 -3 -7 -14 -4 -23 6 -26 13 -6 13 8 0 17 -4 20 -9z
m379 -8 c-35 -2 -91 -2 -125 0 -35 2 -7 3 62 3 69 0 97 -1 63 -3z m145 0 c-10
-2 -26 -2 -35 0 -10 3 -2 5 17 5 19 0 27 -2 18 -5z m57 -11 c-3 -3 -11 0 -18
7 -9 10 -8 11 6 5 10 -3 15 -9 12 -12z m-780 -10 c-3 -3 -11 0 -18 7 -9 10 -8
11 6 5 10 -3 15 -9 12 -12z m168 11 c-7 -2 -19 -2 -25 0 -7 3 -2 5 12 5 14 0
19 -2 13 -5z m1264 1 c-3 -3 -12 -4 -19 -1 -8 3 -5 6 6 6 11 1 17 -2 13 -5z
m-4367 -56 c0 -10 5 -18 10 -18 6 0 10 -22 10 -50 0 -63 -15 -65 -23 -2 -7 52
-12 77 -22 107 -7 20 -6 20 9 1 9 -11 16 -28 16 -38z m3203 45 c-7 -2 -19 -2
-25 0 -7 3 -2 5 12 5 14 0 19 -2 13 -5z m72 -3 c3 -6 -1 -7 -9 -4 -18 7 -21
14 -7 14 6 0 13 -4 16 -10z m456 -15 c0 -5 -5 -11 -13 -13 -9 -3 -9 -1 1 6 12
8 10 11 -10 15 -22 4 -22 4 -1 3 12 -1 23 -5 23 -11z m-2911 -6 c0 -5 -3 -8
-7 -6 -11 7 -8 -116 2 -134 6 -11 5 -12 -5 -2 -20 19 -24 153 -5 153 8 0 15
-5 15 -11z m2683 4 c-7 -2 -21 -2 -30 0 -10 3 -4 5 12 5 17 0 24 -2 18 -5z
m510 0 c-7 -2 -19 -2 -25 0 -7 3 -2 5 12 5 14 0 19 -2 13 -5z m-3173 -69 c0
-41 -4 -63 -10 -59 -9 6 -11 101 -3 118 10 18 13 3 13 -59z m2488 50 c20 7 40
-8 25 -17 -17 -11 -63 6 -63 22 0 13 2 13 9 2 5 -8 16 -11 29 -7z m260 9 c-10
-2 -26 -2 -35 0 -10 3 -2 5 17 5 19 0 27 -2 18 -5z m112 3 c0 -3 -4 -8 -10
-11 -5 -3 -10 -1 -10 4 0 6 5 11 10 11 6 0 10 -2 10 -4z m90 -12 c0 -2 -7 -4
-15 -4 -8 0 -15 4 -15 10 0 5 7 7 15 4 8 -4 15 -8 15 -10z m60 -1 c1 -16 2
-16 15 1 8 11 15 16 15 10 0 -5 22 -7 50 -6 30 3 50 0 50 -6 0 -6 -18 -9 -45
-6 -34 3 -45 1 -45 -10 0 -9 -8 -12 -25 -8 -14 2 -25 11 -25 19 0 8 -4 11 -10
8 -5 -3 -10 -1 -10 4 0 19 30 12 30 -6z m-3250 -35 c0 -17 -3 -29 -6 -25 -10
10 -12 67 -3 61 5 -3 9 -19 9 -36z m547 20 c-3 -8 -6 -5 -6 6 -1 11 2 17 5 13
3 -3 4 -12 1 -19z m-1007 -48 c-10 -55 -16 -67 -25 -58 -3 3 2 30 12 61 9 31
18 55 20 53 2 -1 -1 -27 -7 -56z m3550 10 c0 -22 -4 -28 -15 -24 -8 4 -15 1
-15 -6 0 -7 -5 -6 -15 4 -21 21 -19 26 11 26 19 0 25 4 20 15 -3 8 -1 15 4 15
6 0 10 -13 10 -30z m-2786 5 c3 -8 1 -15 -4 -15 -6 0 -10 7 -10 15 0 8 2 15 4
15 2 0 6 -7 10 -15z m1783 9 c-3 -3 -12 -4 -19 -1 -8 3 -5 6 6 6 11 1 17 -2
13 -5z m808 -11 c21 3 33 2 30 -4 -11 -16 -82 -11 -89 7 -5 14 -4 15 9 4 9 -8
29 -10 50 -7z m-2235 -18 c0 -8 -4 -15 -10 -15 -5 0 -10 7 -10 15 0 8 5 15 10
15 6 0 10 -7 10 -15z m2360 3 c0 -5 -15 -8 -34 -8 -19 0 -37 3 -40 8 -2 4 13
7 35 7 21 0 39 -3 39 -7z m-5093 -20 c-3 -8 -6 -5 -6 6 -1 11 2 17 5 13 3 -3
4 -12 1 -19z m2566 -205 c-1 -120 -3 -277 -3 -349 0 -109 -2 -131 -15 -131 -8
0 -15 6 -15 14 0 7 -8 14 -17 14 -17 1 -17 2 0 6 9 2 17 9 17 14 0 5 -8 10
-17 10 -17 1 -17 2 0 6 9 2 17 9 17 15 0 5 -7 8 -15 4 -8 -3 -15 -1 -15 4 0 6
8 10 18 11 15 0 14 1 -2 8 -19 7 -18 8 5 15 l24 8 -25 8 c-17 5 -19 8 -7 9 9
1 17 6 17 12 0 6 -7 9 -15 5 -8 -3 -15 -1 -15 4 0 6 8 10 18 11 14 0 14 2 -3
9 -17 7 -17 9 -2 9 9 1 17 6 17 11 0 6 -8 11 -17 11 -17 1 -17 2 0 6 9 2 17 8
17 13 0 5 -7 7 -15 4 -8 -4 -15 -1 -15 5 0 6 8 12 18 12 16 1 16 2 0 6 -10 2
-18 8 -18 13 0 5 7 7 15 4 8 -4 15 -1 15 5 0 6 -8 12 -17 12 -17 1 -17 2 0 6
9 2 17 9 17 14 0 5 -8 9 -17 10 -15 0 -15 2 2 9 17 7 17 9 3 9 -10 1 -18 6
-18 11 0 6 8 10 18 11 14 0 14 2 -3 9 -17 7 -17 9 -2 9 9 1 17 6 17 11 0 6 -8
11 -17 11 -17 1 -17 2 0 6 9 2 17 8 17 13 0 5 -7 7 -15 4 -8 -4 -15 -1 -15 5
0 6 8 12 18 12 16 1 16 2 0 6 -10 2 -18 8 -18 13 0 5 7 7 15 4 8 -4 15 -1 15
5 0 6 -8 12 -17 12 -17 1 -17 2 0 6 9 2 17 9 17 14 0 5 -8 10 -17 10 -17 1
-17 2 0 6 9 2 17 9 17 14 0 5 -8 9 -17 10 -15 0 -15 2 2 9 17 7 17 9 3 9 -10
1 -18 9 -18 19 0 14 2 15 10 2 14 -23 24 -3 25 48 0 41 8 61 25 62 3 0 4 -98
3 -217z m674 195 c-3 -8 -6 -5 -6 6 -1 11 2 17 5 13 3 -3 4 -12 1 -19z m-2137
8 c0 -3 -4 -8 -10 -11 -5 -3 -10 -1 -10 4 0 6 5 11 10 11 6 0 10 -2 10 -4z
m667 -58 c-2 -13 -4 -5 -4 17 -1 22 1 32 4 23 2 -10 2 -28 0 -40z m361 -135
c-2 -210 -6 -195 -10 35 -2 83 0 152 5 152 4 0 6 -84 5 -187z m-401 171 c-3
-3 -12 -4 -19 -1 -8 3 -5 6 6 6 11 1 17 -2 13 -5z m25 -34 c2 -27 -1 -41 -10
-45 -7 -2 -10 0 -7 5 3 6 0 10 -7 11 -10 0 -10 2 0 6 6 2 12 18 12 34 0 42 7
36 12 -11z m3223 30 c3 -5 -1 -10 -9 -10 -9 0 -16 5 -16 10 0 6 4 10 9 10 6 0
13 -4 16 -10z m-4205 -31 c0 -5 -4 -9 -10 -9 -5 0 -10 7 -10 16 0 8 5 12 10 9
6 -3 10 -10 10 -16z m-55 -25 c21 8 25 -52 5 -77 -9 -12 -20 -29 -23 -37 -3
-8 -5 23 -5 70 0 47 3 75 5 62 3 -14 10 -22 18 -18z m2959 21 c-4 -8 -8 -15
-10 -15 -2 0 -4 7 -4 15 0 8 4 15 10 15 5 0 7 -7 4 -15z m-1424 -5 c0 -5 -4
-10 -10 -10 -5 0 -10 5 -10 10 0 6 5 10 10 10 6 0 10 -4 10 -10z m3473 3 c-7
-2 -19 -2 -25 0 -7 3 -2 5 12 5 14 0 19 -2 13 -5z m-3656 -185 c-2 -35 -3 -7
-3 62 0 69 1 97 3 63 2 -35 2 -91 0 -125z m2433 162 c0 -11 -4 -20 -9 -20 -5
0 -11 9 -14 20 -3 13 0 20 9 20 8 0 14 -9 14 -20z m30 -1 c0 -11 -4 -17 -10
-14 -5 3 -10 13 -10 21 0 8 5 14 10 14 6 0 10 -9 10 -21z m-320 -11 c0 -6 -6
-5 -15 2 -8 7 -15 14 -15 16 0 2 7 1 15 -2 8 -4 15 -11 15 -16z m-1803 -3 c0
-8 -4 -15 -9 -15 -10 0 -11 14 -1 23 9 10 10 9 10 -8z m-37 -5 c0 -5 -8 -10
-17 -11 -15 0 -15 -2 2 -9 17 -7 17 -9 3 -9 -10 -1 -18 -5 -18 -11 0 -5 8 -11
18 -11 16 -1 16 -2 0 -6 -10 -2 -18 -9 -18 -14 0 -5 8 -9 18 -10 14 0 14 -2
-3 -9 -17 -7 -17 -9 -2 -9 9 -1 17 -5 17 -10 0 -5 -8 -8 -17 -7 -26 4 -31 95
-7 113 21 16 24 16 24 3z m2447 4 c-3 -3 -12 -4 -19 -1 -8 3 -5 6 6 6 11 1 17
-2 13 -5z m-3633 -29 c3 -8 1 -15 -4 -15 -6 0 -10 7 -10 15 0 8 2 15 4 15 2 0
6 -7 10 -15z m391 5 c-28 -12 -37 -12 -30 0 3 6 16 10 28 9 21 0 21 -1 2 -9z
m872 -6 c-3 -3 -12 -4 -19 -1 -8 3 -5 6 6 6 11 1 17 -2 13 -5z m33 -4 c0 -5
-2 -10 -4 -10 -3 0 -8 5 -11 10 -3 6 -1 10 4 10 6 0 11 -4 11 -10z m-1565 -42
c47 -65 47 -65 18 -64 -14 0 -28 -5 -30 -11 -5 -15 16 -17 51 -3 26 9 26 9 26
-40 0 -36 -4 -50 -14 -50 -7 0 -19 -7 -26 -15 -7 -8 -16 -12 -21 -9 -5 3 -9 0
-9 -5 0 -6 -3 -11 -7 -11 -5 0 -7 24 -5 52 3 40 -3 67 -22 111 -14 32 -26 64
-26 72 0 29 35 14 65 -27z m942 10 c-3 -8 -6 -5 -6 6 -1 11 2 17 5 13 3 -3 4
-12 1 -19z m2320 -15 c-3 -10 -5 -4 -5 12 0 17 2 24 5 18 2 -7 2 -21 0 -30z
m-3713 11 c3 -8 2 -12 -4 -9 -6 3 -10 10 -10 16 0 14 7 11 14 -7z m526 12 c0
-3 -4 -8 -10 -11 -5 -3 -10 -1 -10 4 0 6 5 11 10 11 6 0 10 -2 10 -4z m843
-48 c-1 -43 0 -46 5 -19 12 59 32 50 32 -13 0 -52 -11 -73 -23 -43 -3 6 -6 -1
-6 -17 -1 -23 2 -27 11 -18 17 17 33 15 19 -2 -6 -8 -21 -16 -31 -19 -19 -5
-20 0 -20 66 0 40 -3 82 -6 95 -4 15 -2 22 7 22 10 0 14 -14 12 -52z m614 46
c-3 -3 -12 -4 -19 -1 -8 3 -5 6 6 6 11 1 17 -2 13 -5z m-1811 -50 c25 10 15
-9 -12 -21 -24 -11 -26 -11 -20 10 3 12 6 29 7 37 1 8 4 5 6 -8 3 -15 10 -22
19 -18z m-229 -56 c-2 -18 -4 -6 -4 27 0 33 2 48 4 33 2 -15 2 -42 0 -60z
m-397 68 c0 -2 -9 -6 -20 -9 -11 -3 -18 -1 -14 4 5 9 34 13 34 5z m467 -58
c-2 -13 -4 -3 -4 22 0 25 2 35 4 23 2 -13 2 -33 0 -45z m110 40 c-3 -8 -6 -5
-6 6 -1 11 2 17 5 13 3 -3 4 -12 1 -19z m1710 0 c-3 -8 -6 -5 -6 6 -1 11 2 17
5 13 3 -3 4 -12 1 -19z m1489 4 c-10 -2 -22 0 -28 6 -6 6 0 7 19 4 21 -5 23
-7 9 -10z m-1376 -2 c0 -5 -4 -10 -10 -10 -5 0 -10 5 -10 10 0 6 5 10 10 10 6
0 10 -4 10 -10z m30 0 c0 -5 -5 -10 -11 -10 -5 0 -7 5 -4 10 3 6 8 10 11 10 2
0 4 -4 4 -10z m40 0 c0 -5 -4 -10 -10 -10 -5 0 -10 5 -10 10 0 6 5 10 10 10 6
0 10 -4 10 -10z m1087 -12 c-3 -8 -6 -5 -6 6 -1 11 2 17 5 13 3 -3 4 -12 1
-19z m326 -5 c-7 -2 -19 -2 -25 0 -7 3 -2 5 12 5 14 0 19 -2 13 -5z m-3356
-25 c-3 -8 -6 -5 -6 6 -1 11 2 17 5 13 3 -3 4 -12 1 -19z m1830 16 c-3 -3 -12
-4 -19 -1 -8 3 -5 6 6 6 11 1 17 -2 13 -5z m957 -20 c3 -8 2 -12 -4 -9 -6 3
-10 10 -10 16 0 14 7 11 14 -7z m676 -96 c0 -62 -4 -108 -8 -102 -7 12 -4 214
4 214 2 0 4 -51 4 -112z m487 90 c-3 -8 -6 -5 -6 6 -1 11 2 17 5 13 3 -3 4
-12 1 -19z m-4140 -20 c-3 -8 -6 -5 -6 6 -1 11 2 17 5 13 3 -3 4 -12 1 -19z
m940 -10 c-3 -7 -5 -2 -5 12 0 14 2 19 5 13 2 -7 2 -19 0 -25z m1080 26 c-3
-3 -12 -4 -19 -1 -8 3 -5 6 6 6 11 1 17 -2 13 -5z m80 0 c-3 -3 -12 -4 -19 -1
-8 3 -5 6 6 6 11 1 17 -2 13 -5z m1410 -31 c-3 -10 -5 -4 -5 12 0 17 2 24 5
18 2 -7 2 -21 0 -30z m-3482 -3 c3 -5 1 -10 -4 -10 -6 0 -11 5 -11 10 0 6 2
10 4 10 3 0 8 -4 11 -10z m1992 4 c-3 -3 -12 -4 -19 -1 -8 3 -5 6 6 6 11 1 17
-2 13 -5z m80 0 c-3 -3 -12 -4 -19 -1 -8 3 -5 6 6 6 11 1 17 -2 13 -5z m-1817
-33 c0 -32 -17 -43 -73 -46 -31 -1 -54 2 -51 6 3 5 -7 4 -21 -1 -34 -13 -70
-13 -40 0 17 7 17 9 3 9 -10 1 -18 7 -18 15 0 15 20 25 62 32 23 4 27 1 30
-21 2 -14 6 -25 11 -25 4 0 23 0 43 0 35 0 36 1 31 30 -5 23 -3 28 8 23 8 -3
15 -13 15 -22z m5240 19 c0 -5 -8 -10 -17 -10 -15 0 -16 2 -3 10 19 12 20 12
20 0z m63 -4 c21 4 21 4 2 -5 -23 -10 -35 -5 -34 12 0 9 2 9 5 1 3 -7 15 -10
27 -8z m-5350 -3 c3 -5 -5 -8 -18 -8 -13 0 -21 3 -18 8 2 4 10 7 18 7 8 0 16
-3 18 -7z m1827 3 c0 -3 -4 -8 -10 -11 -5 -3 -10 -1 -10 4 0 6 5 11 10 11 6 0
10 -2 10 -4z m70 -6 c0 -5 -4 -10 -10 -10 -5 0 -10 5 -10 10 0 6 5 10 10 10 6
0 10 -4 10 -10z m895 -8 c-3 -3 -11 0 -18 7 -9 10 -8 11 6 5 10 -3 15 -9 12
-12z m-2036 -49 c-1 -62 -6 -56 -11 15 -2 23 0 42 4 42 5 0 7 -26 7 -57z m581
27 c0 -18 -5 -30 -13 -30 -9 0 -12 -9 -10 -27 2 -16 0 -46 -5 -68 -9 -35 -10
-30 -10 45 0 67 3 87 16 97 23 17 22 17 22 -17z m-1363 4 c-3 -3 -12 -4 -19
-1 -8 3 -5 6 6 6 11 1 17 -2 13 -5z m40 0 c-3 -3 -12 -4 -19 -1 -8 3 -5 6 6 6
11 1 17 -2 13 -5z m1770 0 c-3 -3 -12 -4 -19 -1 -8 3 -5 6 6 6 11 1 17 -2 13
-5z m80 0 c-3 -3 -12 -4 -19 -1 -8 3 -5 6 6 6 11 1 17 -2 13 -5z m3376 -1 c-7
-2 -19 -2 -25 0 -7 3 -2 5 12 5 14 0 19 -2 13 -5z m57 3 c0 -2 -7 -6 -15 -10
-8 -3 -15 -1 -15 4 0 6 7 10 15 10 8 0 15 -2 15 -4z m-2023 -53 c-3 -10 -5 -2
-5 17 0 19 2 27 5 18 2 -10 2 -26 0 -35z m2327 36 c15 12 17 11 15 -5 0 -4 5
-10 13 -15 10 -6 10 -11 1 -20 -14 -14 -36 -2 -26 14 5 8 2 8 -9 0 -18 -15
-28 -7 -28 21 0 17 2 18 9 7 8 -12 12 -12 25 -2z m-5907 -31 c-3 -7 -5 -2 -5
12 0 14 2 19 5 13 2 -7 2 -19 0 -25z m707 3 c-10 -10 -23 -16 -29 -14 -5 2 -2
-2 7 -9 15 -13 15 -15 -4 -27 -17 -11 -22 -10 -29 1 -16 25 -9 46 19 56 45 17
58 15 36 -7z m1383 13 c-3 -3 -12 -4 -19 -1 -8 3 -5 6 6 6 11 1 17 -2 13 -5z
m80 0 c-3 -3 -12 -4 -19 -1 -8 3 -5 6 6 6 11 1 17 -2 13 -5z m-1939 -13 c21
-13 -11 -22 -51 -14 -31 7 -31 7 -7 14 35 10 43 10 58 0z m4437 -1 c3 -5 1
-10 -4 -10 -6 0 -11 5 -11 10 0 6 2 10 4 10 3 0 8 -4 11 -10z m-2575 -10 c0
-5 -7 -10 -15 -10 -8 0 -15 5 -15 10 0 6 7 10 15 10 8 0 15 -4 15 -10z m40 0
c0 -5 -4 -10 -10 -10 -5 0 -10 5 -10 10 0 6 5 10 10 10 6 0 10 -4 10 -10z m35
0 c3 -5 -1 -10 -9 -10 -9 0 -16 5 -16 10 0 6 4 10 9 10 6 0 13 -4 16 -10z m30
0 c3 -5 1 -10 -4 -10 -6 0 -11 5 -11 10 0 6 2 10 4 10 3 0 8 -4 11 -10z m2635
-6 c0 -8 -5 -12 -10 -9 -6 4 -8 11 -5 16 9 14 15 11 15 -7z m-4595 -31 c0 -13
-3 -23 -6 -23 -3 0 -5 -27 -4 -60 1 -33 0 -60 -1 -60 -1 0 -17 7 -35 15 l-34
16 35 -5 35 -5 -34 11 -34 12 34 12 c23 8 28 13 14 13 -17 1 -17 3 -5 11 13 9
13 10 0 10 -13 0 -13 1 0 10 11 8 7 9 -15 5 -16 -3 -24 -2 -16 1 11 5 11 8 0
16 -10 7 -5 8 16 4 20 -5 25 -4 16 3 -12 8 -12 10 0 13 8 3 1 3 -16 1 -21 -3
-26 -1 -16 5 11 8 10 11 -5 14 -10 3 1 5 26 4 40 -1 45 -3 45 -23z m1402 -5
c-3 -7 -5 -2 -5 12 0 14 2 19 5 13 2 -7 2 -19 0 -25z m450 16 c-3 -3 -12 -4
-19 -1 -8 3 -5 6 6 6 11 1 17 -2 13 -5z m43 -4 c0 -5 -2 -10 -4 -10 -3 0 -8 5
-11 10 -3 6 -1 10 4 10 6 0 11 -4 11 -10z m37 4 c-3 -3 -12 -4 -19 -1 -8 3 -5
6 6 6 11 1 17 -2 13 -5z m33 -4 c0 -5 -2 -10 -4 -10 -3 0 -8 5 -11 10 -3 6 -1
10 4 10 6 0 11 -4 11 -10z m-443 -32 c-3 -7 -5 -2 -5 12 0 14 2 19 5 13 2 -7
2 -19 0 -25z m1893 22 c0 -5 -7 -10 -15 -10 -8 0 -15 5 -15 10 0 6 7 10 15 10
8 0 15 -4 15 -10z m-2946 -26 c-22 -8 -40 -14 -41 -14 -2 0 -3 -30 -4 -67 -1
-108 -17 -123 -18 -18 l-1 91 43 16 c23 8 46 13 51 10 5 -2 -9 -11 -30 -18z
m1383 10 c-3 -3 -12 -4 -19 -1 -8 3 -5 6 6 6 11 1 17 -2 13 -5z m80 0 c-3 -3
-12 -4 -19 -1 -8 3 -5 6 6 6 11 1 17 -2 13 -5z m-494 -41 c4 -21 2 -42 -3 -47
-7 -7 -10 2 -11 25 -2 34 -2 34 -8 -7 -4 -22 -6 -66 -4 -98 2 -39 -1 -55 -9
-50 -11 7 -6 183 7 204 12 19 22 10 28 -27z m1674 -10 c-3 -10 -5 -2 -5 17 0
19 2 27 5 18 2 -10 2 -26 0 -35z m-2620 15 c-3 -8 -6 -5 -6 6 -1 11 2 17 5 13
3 -3 4 -12 1 -19z m1363 12 c0 -5 -7 -10 -15 -10 -8 0 -15 5 -15 10 0 6 7 10
15 10 8 0 15 -4 15 -10z m40 0 c0 -5 -4 -10 -10 -10 -5 0 -10 5 -10 10 0 6 5
10 10 10 6 0 10 -4 10 -10z m30 0 c0 -5 -5 -10 -11 -10 -5 0 -7 5 -4 10 3 6 8
10 11 10 2 0 4 -4 4 -10z m40 0 c0 -5 -5 -10 -11 -10 -5 0 -7 5 -4 10 3 6 8
10 11 10 2 0 4 -4 4 -10z m2090 -15 c0 -8 -4 -15 -10 -15 -5 0 -10 7 -10 15 0
8 5 15 10 15 6 0 10 -7 10 -15z m-4103 -1 c-3 -3 -12 -4 -19 -1 -8 3 -5 6 6 6
11 1 17 -2 13 -5z m1900 -10 c-3 -3 -12 -4 -19 -1 -8 3 -5 6 6 6 11 1 17 -2
13 -5z m83 2 c0 -11 -19 -15 -25 -6 -3 5 1 10 9 10 9 0 16 -2 16 -4z m30 -6
c0 -5 -2 -10 -4 -10 -3 0 -8 5 -11 10 -3 6 -1 10 4 10 6 0 11 -4 11 -10z m757
-22 c-3 -7 -5 -2 -5 12 0 14 2 19 5 13 2 -7 2 -19 0 -25z m-2770 16 c-3 -3
-12 -4 -19 -1 -8 3 -5 6 6 6 11 1 17 -2 13 -5z m1900 -20 c-3 -3 -12 -4 -19
-1 -8 3 -5 6 6 6 11 1 17 -2 13 -5z m80 0 c-3 -3 -12 -4 -19 -1 -8 3 -5 6 6 6
11 1 17 -2 13 -5z m-77 -24 c0 -5 -7 -10 -15 -10 -8 0 -15 5 -15 10 0 6 7 10
15 10 8 0 15 -4 15 -10z m35 0 c3 -5 1 -10 -4 -10 -6 0 -11 5 -11 10 0 6 2 10
4 10 3 0 8 -4 11 -10z m872 -6 c-3 -3 -12 -4 -19 -1 -8 3 -5 6 6 6 11 1 17 -2
13 -5z m-2792 -16 l26 -12 -23 -13 -23 -14 24 7 c17 4 21 3 16 -6 -4 -6 -17
-9 -30 -6 -14 4 -25 1 -28 -7 -4 -8 -6 -7 -6 4 -1 8 11 20 27 26 26 11 26 12
2 9 -14 -2 -18 -1 -10 2 12 4 11 6 -5 13 -11 4 -15 8 -8 8 7 1 24 -4 38 -11z
m1475 3 c0 -6 -4 -13 -10 -16 -5 -3 -10 1 -10 9 0 9 5 16 10 16 6 0 10 -4 10
-9z m410 -5 c0 -11 -19 -15 -25 -6 -3 5 1 10 9 10 9 0 16 -2 16 -4z m70 0 c0
-3 -4 -8 -10 -11 -5 -3 -10 -1 -10 4 0 6 5 11 10 11 6 0 10 -2 10 -4z m40 -6
c0 -5 -4 -10 -10 -10 -5 0 -10 5 -10 10 0 6 5 10 10 10 6 0 10 -4 10 -10z
m2625 0 c-27 -12 -43 -12 -25 0 8 5 22 9 30 9 10 0 8 -3 -5 -9z m75 0 c-20
-13 -53 -13 -45 0 3 6 18 10 33 10 21 0 24 -2 12 -10z m60 -6 c0 -2 -9 -4 -20
-4 -11 0 -20 4 -20 9 0 5 9 7 20 4 11 -3 20 -7 20 -9z m-5080 -17 c0 -8 -7
-14 -15 -14 -25 0 -17 17 13 26 1 1 2 -5 2 -12z m820 -17 c-8 -6 -22 -10 -30
-9 -9 0 -5 6 10 14 27 14 44 10 20 -5z m1387 14 c-3 -3 -12 -4 -19 -1 -8 3 -5
6 6 6 11 1 17 -2 13 -5z m80 0 c-3 -3 -12 -4 -19 -1 -8 3 -5 6 6 6 11 1 17 -2
13 -5z m-487 -11 c0 -5 -5 -15 -10 -23 -8 -12 -10 -11 -10 8 0 12 5 22 10 22
6 0 10 -3 10 -7z m-1750 -10 c0 -5 -12 -9 -27 -10 -19 -1 -22 1 -12 8 17 11
39 12 39 2z m2195 -3 c3 -5 1 -10 -4 -10 -6 0 -11 5 -11 10 0 6 2 10 4 10 3 0
8 -4 11 -10z m3435 0 c0 -5 -5 -10 -11 -10 -5 0 -7 5 -4 10 3 6 8 10 11 10 2
0 4 -4 4 -10z m-5893 -27 c-2 -20 -9 -29 -23 -31 -18 -3 -20 1 -16 28 6 41 42
44 39 3z m2420 21 c-3 -3 -12 -4 -19 -1 -8 3 -5 6 6 6 11 1 17 -2 13 -5z m80
0 c-3 -3 -12 -4 -19 -1 -8 3 -5 6 6 6 11 1 17 -2 13 -5z m-1452 -14 c-3 -6
-19 -17 -36 -25 -24 -13 -29 -13 -29 -2 0 8 15 19 33 25 17 5 33 10 35 11 2 1
0 -4 -3 -9z m2642 -22 c-3 -8 -6 -5 -6 6 -1 11 2 17 5 13 3 -3 4 -12 1 -19z
m-1677 5 c0 -5 -5 -15 -10 -23 -8 -12 -10 -11 -10 8 0 12 5 22 10 22 6 0 10
-3 10 -7z m-1660 -10 c0 -5 -42 -23 -93 -42 -122 -46 -124 -46 -112 -33 9 9
176 78 198 81 4 1 7 -2 7 -6z m1630 -263 c0 -143 -3 -260 -8 -260 -4 0 -7 114
-6 253 1 266 1 267 9 267 3 0 5 -117 5 -260z m-940 239 c0 -5 -4 -8 -9 -5 -11
7 -21 -17 -21 -52 0 -21 -2 -24 -10 -12 -8 12 -10 9 -10 -12 0 -16 -5 -28 -11
-28 -6 0 -8 7 -5 16 3 9 6 30 6 48 0 24 6 36 23 44 29 14 37 14 37 1z m2647
-11 c-3 -8 -6 -5 -6 6 -1 11 2 17 5 13 3 -3 4 -12 1 -19z m-2607 2 c0 -5 -5
-10 -11 -10 -5 0 -7 5 -4 10 3 6 8 10 11 10 2 0 4 -4 4 -10z m-745 -22 c-35
-21 -188 -78 -193 -73 -8 7 -5 8 93 48 89 36 141 49 100 25z m698 -3 c-3 -9
-8 -14 -10 -11 -3 3 -2 9 2 15 9 16 15 13 8 -4z m977 6 c0 -6 -4 -13 -10 -16
-5 -3 -10 1 -10 9 0 9 5 16 10 16 6 0 10 -4 10 -9z m3830 -10 c-5 -11 -10 -35
-9 -53 0 -28 2 -30 10 -13 8 18 8 18 6 -4 -1 -14 -8 -26 -14 -29 -9 -3 -13 12
-13 51 0 53 5 67 22 67 5 0 4 -9 -2 -19z m-4760 -11 c0 -5 -5 -10 -11 -10 -5
0 -7 5 -4 10 3 6 8 10 11 10 2 0 4 -4 4 -10z m4371 -17 c13 -16 12 -17 -3 -4
-10 7 -18 15 -18 17 0 8 8 3 21 -13z m272 10 c-7 -2 -21 -2 -30 0 -10 3 -4 5
12 5 17 0 24 -2 18 -5z m-5373 -11 c0 -5 -19 -17 -42 -27 -24 -10 -71 -31
-105 -46 -40 -18 -63 -24 -63 -16 0 9 169 87 208 96 1 1 2 -3 2 -7z m1659
-147 c-1 -85 -5 -155 -9 -155 -9 0 -12 289 -3 302 11 20 13 -2 12 -147z m3637
140 c14 -13 13 -15 -6 -15 -12 0 -19 4 -16 9 4 5 0 12 -6 14 -10 4 -10 6 0 6
7 1 20 -6 28 -14z m134 -17 c0 -13 -32 -6 -37 9 -3 7 3 9 16 6 12 -3 21 -10
21 -15z m-2093 -25 c-3 -10 -5 -4 -5 12 0 17 2 24 5 18 2 -7 2 -21 0 -30z
m1726 30 c-13 -2 -33 -2 -45 0 -13 2 -3 4 22 4 25 0 35 -2 23 -4z m177 -30 c0
-7 -39 17 -46 28 -3 6 5 3 20 -6 14 -10 26 -19 26 -22z m-4553 -35 c-2 -13 -4
-3 -4 22 0 25 2 35 4 23 2 -13 2 -33 0 -45z m-687 27 c0 -8 -3 -14 -7 -13 -9
1 -31 -7 -127 -51 -79 -36 -76 -35 -76 -18 0 8 17 19 39 25 21 7 67 25 102 42
35 16 65 29 67 30 1 0 2 -7 2 -15z m640 -10 c-7 -9 -15 -13 -17 -11 -7 7 7 26
19 26 6 0 6 -6 -2 -15z m4918 -11 c15 -7 20 -14 12 -14 -8 0 -26 10 -40 21
-14 11 -19 18 -12 14 6 -3 24 -13 40 -21z m-630 9 c-10 -2 -26 -2 -35 0 -10 3
-2 5 17 5 19 0 27 -2 18 -5z m277 -7 c10 4 14 -4 13 -34 0 -22 3 -46 8 -54 6
-10 3 -9 -10 1 -11 9 -16 24 -13 39 3 14 -1 26 -9 29 -8 3 -14 13 -13 22 0 9
3 11 5 4 3 -7 11 -10 19 -7z m-155 -11 c11 -13 10 -14 -4 -9 -9 3 -16 10 -16
15 0 13 6 11 20 -6z m-4406 -20 c-4 -8 -8 -15 -10 -15 -2 0 -4 7 -4 15 0 8 4
15 10 15 5 0 7 -7 4 -15z m-644 -4 c0 -11 -31 -24 -39 -16 -3 3 1 10 9 15 19
12 30 12 30 1z m-54 -20 c-8 -12 -76 -44 -82 -38 -3 2 15 14 38 25 50 25 51
25 44 13z m52 -33 c-3 -7 -15 -14 -29 -16 -24 -4 -24 -3 -4 12 24 19 38 20 33
4z m5392 -10 c12 -8 11 -8 -3 -4 -10 3 -39 6 -63 6 -24 0 -44 4 -44 10 0 11
88 2 110 -12z m-5650 2 c0 -5 -2 -10 -4 -10 -3 0 -8 5 -11 10 -3 6 -1 10 4 10
6 0 11 -4 11 -10z m100 -6 c-21 -25 -50 -37 -50 -21 0 10 27 27 59 36 2 1 -2
-6 -9 -15z m5127 0 c-3 -3 -12 -4 -19 -1 -8 3 -5 6 6 6 11 1 17 -2 13 -5z
m257 -25 c-8 -13 -24 -1 -24 18 0 13 3 13 15 3 8 -7 12 -16 9 -21z m-5284 12
c0 -5 -8 -11 -17 -14 -10 -3 -44 -17 -75 -30 -32 -14 -58 -21 -58 -17 0 4 21
15 47 25 25 10 58 24 72 31 31 16 31 16 31 5z m710 5 c0 -3 -4 -8 -10 -11 -5
-3 -10 -1 -10 4 0 6 5 11 10 11 6 0 10 -2 10 -4z m-650 -31 c0 -9 -9 -15 -22
-15 -22 1 -23 1 -4 15 25 19 26 19 26 0z m2600 -10 c0 -1 -19 -3 -42 -3 -34 1
-38 2 -18 7 22 6 60 4 60 -4z m70 5 c0 -5 -5 -10 -11 -10 -5 0 -7 5 -4 10 3 6
8 10 11 10 2 0 4 -4 4 -10z m40 -2 c0 -4 -7 -8 -15 -8 -8 0 -15 4 -15 8 0 5 7
9 15 9 8 0 15 -4 15 -9z m50 -4 c0 -2 -7 -4 -15 -4 -8 0 -15 4 -15 10 0 5 7 7
15 4 8 -4 15 -8 15 -10z m1677 -16 c-3 -7 -5 -2 -5 12 0 14 2 19 5 13 2 -7 2
-19 0 -25z m933 22 l25 -8 -27 -1 c-14 -1 -29 -7 -31 -13 -3 -8 -6 -7 -6 4 -1
10 -11 18 -28 21 -23 3 -22 4 7 5 19 0 46 -4 60 -8z m-5420 -14 c0 -6 -68 -48
-83 -50 -6 -1 -27 -9 -44 -18 -18 -9 -33 -13 -33 -9 0 3 33 23 73 43 70 36 87
42 87 34z m49 -33 c0 -5 -47 -31 -105 -59 -58 -28 -103 -47 -101 -41 2 6 46
31 98 57 102 51 109 54 108 43z m4438 -30 c-3 -10 -5 -4 -5 12 0 17 2 24 5 18
2 -7 2 -21 0 -30z m945 19 c4 -4 -14 -5 -40 -4 -26 2 -51 9 -57 14 -11 12 85
1 97 -10z m-3052 -38 c0 -2 -7 -4 -15 -4 -8 0 -15 4 -15 10 0 5 7 7 15 4 8 -4
15 -8 15 -10z m-2330 -4 c0 -11 -199 -114 -207 -106 -5 5 -1 7 122 71 44 23
81 43 83 43 1 1 2 -2 2 -8z m1660 -10 c0 -11 -4 -20 -10 -20 -5 0 -10 9 -10
20 0 11 5 20 10 20 6 0 10 -9 10 -20z m2777 -87 c-2 -21 -4 -6 -4 32 0 39 2
55 4 38 2 -18 2 -50 0 -70z m933 87 c10 -7 -1 -8 -35 -4 -27 4 -52 8 -54 10
-10 9 75 3 89 -6z m-4636 -101 c-9 -10 -20 -19 -23 -19 -8 0 -1 93 8 102 4 5
5 -8 3 -27 -3 -22 0 -35 7 -35 7 0 11 6 10 13 -1 6 0 26 2 42 2 23 3 20 6 -14
3 -31 -1 -48 -13 -62z m1866 81 c0 -5 -5 -10 -11 -10 -5 0 -7 5 -4 10 3 6 8
10 11 10 2 0 4 -4 4 -10z m55 -24 c0 -13 -3 -22 -7 -19 -5 2 -8 13 -8 24 0 10
3 19 8 19 4 0 7 -11 7 -24z m-999 -23 c-11 -11 -19 6 -11 24 8 17 8 17 12 0 3
-10 2 -21 -1 -24z m-1656 19 c0 -4 -47 -31 -105 -60 -58 -28 -105 -49 -105
-44 0 6 184 107 203 111 4 0 7 -2 7 -7z m5365 -3 c13 -6 4 -7 -30 -3 -27 4
-52 8 -54 10 -9 8 65 2 84 -7z m-3714 -72 c-8 -8 -11 -5 -11 9 0 27 14 41 18
19 2 -9 -1 -22 -7 -28z m-1652 19 c-15 -13 -161 -87 -165 -84 -5 6 159 96 165
91 2 -2 2 -5 0 -7z m5331 5 c0 -4 -11 -6 -25 -3 -14 2 -25 6 -25 8 0 2 11 4
25 4 14 0 25 -4 25 -9z m37 -7 c-3 -3 -12 -4 -19 -1 -8 3 -5 6 6 6 11 1 17 -2
13 -5z m-3747 -282 c-7 -12 -10 21 -9 118 2 179 13 200 17 32 1 -79 -2 -140
-8 -150z m1037 241 c-3 -10 -5 -4 -5 12 0 17 2 24 5 18 2 -7 2 -21 0 -30z
m1858 17 c3 -5 1 -10 -4 -10 -6 0 -11 5 -11 10 0 6 2 10 4 10 3 0 8 -4 11 -10z
m-3780 -20 c-10 -11 -23 -20 -29 -20 -6 0 0 9 14 20 32 25 38 25 15 0z m3702
-37 c-3 -10 -5 -2 -5 17 0 19 2 27 5 18 2 -10 2 -26 0 -35z m893 37 c0 -12 -8
-12 -35 0 -18 8 -17 9 8 9 15 1 27 -3 27 -9z m-5380 -33 c-55 -33 -101 -55
-87 -41 12 13 121 73 132 74 6 0 -15 -15 -45 -33z m785 -17 c-10 -11 -23 -20
-29 -20 -6 0 0 9 14 20 32 25 38 25 15 0z m-915 6 c0 -2 -8 -10 -17 -17 -16
-13 -17 -12 -4 4 13 16 21 21 21 13z m5520 -6 l25 -8 -25 0 c-14 0 -34 3 -45
8 l-20 9 20 -1 c11 0 31 -4 45 -8z m-2003 -22 c-3 -8 -6 -5 -6 6 -1 11 2 17 5
13 3 -3 4 -12 1 -19z m-2322 -8 c-3 -5 -12 -10 -18 -10 -7 0 -6 4 3 10 19 12
23 12 15 0z m3422 -72 c-2 -18 -4 -6 -4 27 0 33 2 48 4 33 2 -15 2 -42 0 -60z
m253 67 c11 -13 10 -14 -4 -9 -9 3 -16 10 -16 15 0 13 6 11 20 -6z m-4750 -3
c0 -5 -11 -14 -25 -20 -39 -18 -44 -14 -10 7 36 23 35 23 35 13z m795 -12
c-10 -11 -23 -20 -29 -20 -6 0 0 9 14 20 32 25 38 25 15 0z m4595 0 c24 -8 24
-8 -7 -9 -17 -1 -35 4 -38 9 -7 11 9 11 45 0z m-2140 -14 c0 -2 -7 -6 -15 -10
-8 -3 -15 -1 -15 4 0 6 7 10 15 10 8 0 15 -2 15 -4z m-2445 -26 c-3 -5 -16
-15 -28 -21 -19 -9 -19 -8 3 10 28 23 34 26 25 11z m4605 -16 c0 -2 -13 -4
-30 -4 -16 0 -30 4 -30 8 0 5 14 7 30 4 17 -2 30 -6 30 -8z m-5435 -4 c-3 -5
-12 -10 -18 -10 -7 0 -6 4 3 10 19 12 23 12 15 0z m830 -30 c-3 -5 -16 -15
-28 -21 -19 -9 -19 -8 3 10 28 23 34 26 25 11z m3692 -22 c-3 -8 -6 -5 -6 6
-1 11 2 17 5 13 3 -3 4 -12 1 -19z m896 5 c-7 -2 -21 -2 -30 0 -10 3 -4 5 12
5 17 0 24 -2 18 -5z m-3547 -71 c-12 -11 -17 7 -9 34 l8 29 3 -28 c2 -16 1
-31 -2 -35z m2651 1 c-3 -10 -5 -2 -5 17 0 19 2 27 5 18 2 -10 2 -26 0 -35z
m-3707 28 c0 -5 -7 -12 -16 -15 -14 -5 -15 -4 -4 9 14 17 20 19 20 6z m957
-13 c-3 -8 -6 -5 -6 6 -1 11 2 17 5 13 3 -3 4 -12 1 -19z m3647 3 c3 -4 -6 -6
-19 -3 -14 2 -25 6 -25 8 0 8 39 4 44 -5z m-4594 -36 c-7 -8 -17 -15 -23 -15
-6 0 -2 7 9 15 25 19 30 19 14 0z m10 -39 c0 -2 -12 -12 -27 -21 l-28 -18 19
21 c17 20 36 29 36 18z m5117 -32 c-3 -3 -12 -4 -19 -1 -8 3 -5 6 6 6 11 1 17
-2 13 -5z m-6277 -34 c0 -5 -5 -10 -11 -10 -5 0 -7 5 -4 10 3 6 8 10 11 10 2
0 4 -4 4 -10z m1140 6 c0 -2 -8 -10 -17 -17 -16 -13 -17 -12 -4 4 13 16 21 21
21 13z m4585 -16 c3 -6 -1 -7 -9 -4 -18 7 -21 14 -7 14 6 0 13 -4 16 -10z
m-2918 -6 c-3 -3 -12 -4 -19 -1 -8 3 -5 6 6 6 11 1 17 -2 13 -5z"/>
<path d="M1978 3993 c7 -3 16 -2 19 1 4 3 -2 6 -13 5 -11 0 -14 -3 -6 -6z"/>
<path d="M1108 2443 c7 -3 16 -2 19 1 4 3 -2 6 -13 5 -11 0 -14 -3 -6 -6z"/>
<path d="M1107 1428 c3 -5 -4 -18 -16 -29 -12 -11 -21 -24 -21 -29 0 -12 3
-12 34 0 20 7 25 15 23 38 -1 16 -7 29 -14 29 -7 0 -10 -4 -6 -9z"/>
<path d="M1098 1273 c7 -3 16 -2 19 1 4 3 -2 6 -13 5 -11 0 -14 -3 -6 -6z"/>
<path d="M638 1303 c7 -3 16 -2 19 1 4 3 -2 6 -13 5 -11 0 -14 -3 -6 -6z"/>
<path d="M638 1163 c7 -3 16 -2 19 1 4 3 -2 6 -13 5 -11 0 -14 -3 -6 -6z"/>
<path d="M5888 4323 c7 -3 16 -2 19 1 4 3 -2 6 -13 5 -11 0 -14 -3 -6 -6z"/>
<path d="M5843 4278 c-40 -13 -42 -24 -8 -32 30 -8 41 -3 55 25 12 22 4 23
-47 7z"/>
<path d="M5936 4045 c4 -8 10 -15 15 -15 5 0 9 7 9 15 0 8 -7 15 -15 15 -9 0
-12 -6 -9 -15z"/>
<path d="M5760 3700 c0 -5 7 -10 16 -10 8 0 12 5 9 10 -3 6 -10 10 -16 10 -5
0 -9 -4 -9 -10z"/>
<path d="M5500 3580 c0 -13 11 -13 30 0 12 8 11 10 -7 10 -13 0 -23 -4 -23
-10z"/>
<path d="M5550 3570 c-20 -12 -5 -24 16 -12 9 5 12 12 7 15 -5 3 -15 2 -23 -3z"/>
<path d="M5940 3479 c0 -5 5 -7 10 -4 6 3 10 8 10 11 0 2 -4 4 -10 4 -5 0 -10
-5 -10 -11z"/>
<path d="M5570 3470 c0 -5 5 -10 10 -10 6 0 10 5 10 10 0 6 -4 10 -10 10 -5 0
-10 -4 -10 -10z"/>
<path d="M5970 3469 c0 -5 5 -7 10 -4 6 3 10 8 10 11 0 2 -4 4 -10 4 -5 0 -10
-5 -10 -11z"/>
<path d="M6454 3322 c-44 -32 -91 -52 -80 -33 15 24 -33 2 -65 -30 -10 -10
-27 -19 -36 -19 -14 0 -11 6 12 25 36 30 17 33 -39 6 -112 -53 -206 -76 -206
-50 0 36 -183 59 -202 25 -6 -10 -23 -16 -46 -17 -34 -1 -35 -2 -12 -10 19 -7
15 -8 -20 -4 -25 2 -39 2 -32 -1 6 -3 12 -14 12 -24 0 -10 5 -22 10 -25 12 -7
14 -45 3 -45 -5 0 -16 7 -27 15 -13 10 -24 11 -37 4 -14 -7 -32 -5 -64 6 -25
8 -58 15 -72 15 -15 0 -37 9 -49 21 -13 12 -40 22 -66 25 -25 2 -35 1 -23 -4
11 -4 37 -19 56 -34 20 -16 43 -28 53 -28 9 0 19 -7 22 -15 4 -8 17 -15 30
-15 13 0 24 -5 24 -10 0 -6 12 -16 28 -23 15 -6 29 -14 32 -17 8 -10 95 -50
108 -50 7 0 11 -5 10 -12 -2 -7 11 -15 27 -18 37 -6 114 -42 115 -53 0 -9 -59
0 -110 18 -24 8 -59 9 -110 4 -101 -10 -191 -10 -165 1 18 7 18 9 -9 19 -16 7
-34 10 -40 7 -6 -2 -3 -5 7 -5 35 -2 16 -21 -22 -21 -31 0 -43 6 -62 30 -13
16 -28 30 -32 30 -5 0 -15 7 -23 15 -14 13 -13 15 5 15 11 0 32 -12 45 -27 25
-27 26 -27 40 -8 18 23 21 55 6 55 -5 0 -10 6 -10 14 0 7 -15 19 -32 26 -18 6
-46 18 -63 25 -16 7 -43 17 -60 21 -29 7 -29 8 -5 12 22 4 21 5 -15 18 -53 18
-69 18 -61 -2 5 -12 2 -15 -10 -10 -8 3 -57 11 -107 16 -51 6 -100 13 -109 16
-20 6 -25 -12 -5 -19 6 -3 -13 -3 -43 0 -53 5 -54 4 -28 -10 15 -8 40 -18 57
-22 17 -4 31 -11 31 -16 0 -5 17 -9 38 -9 20 1 53 -3 72 -9 l35 -9 -40 -2
c-22 -2 -52 -2 -67 -1 -14 1 -29 -3 -33 -8 -4 -7 4 -11 19 -11 14 0 26 -4 26
-9 0 -5 8 -12 18 -14 9 -3 -17 -4 -59 -2 -42 1 -81 5 -88 9 -20 13 -190 23
-195 11 -2 -5 -5 -4 -5 3 -1 7 -14 12 -32 12 -20 0 -28 -4 -23 -11 10 -16
-282 -2 -316 16 -14 7 -50 15 -80 18 -34 3 -47 2 -35 -3 11 -5 32 -9 48 -9 15
-1 27 -6 27 -12 0 -7 -15 -9 -42 -4 -28 4 -38 3 -28 -3 8 -5 84 -17 168 -26
84 -9 164 -21 178 -26 14 -6 44 -10 67 -11 23 0 51 -4 62 -9 28 -13 -401 -3
-445 10 -19 5 -44 10 -55 10 -17 -1 -18 -2 -4 -10 28 -16 159 -32 419 -50 200
-14 261 -23 290 -42 14 -9 58 -21 98 -27 41 -5 77 -12 80 -15 3 -3 -26 -7 -64
-8 -55 -1 -59 -2 -19 -5 216 -13 317 -33 283 -54 -9 -6 -5 -9 13 -9 14 0 33
-6 42 -12 15 -11 6 -13 -50 -10 -45 2 -63 0 -54 -7 8 -5 20 -7 28 -4 7 3 13 1
13 -4 0 -29 555 -85 658 -67 38 7 42 19 7 28 -14 4 -25 13 -25 20 0 11 26 16
104 21 57 4 109 4 115 0 21 -12 173 -8 182 6 10 17 2 29 -20 29 -10 0 -18 7
-18 15 0 9 15 16 46 20 25 4 51 8 56 9 6 2 23 -6 38 -16 18 -13 36 -18 52 -14
28 7 35 28 8 24 -10 -2 -17 3 -15 10 1 6 -7 12 -18 12 -11 0 -20 4 -20 9 0 5
-15 13 -32 17 -18 3 -44 15 -57 25 -13 11 -32 19 -43 19 -10 0 -21 7 -24 15
-4 8 -12 15 -20 15 -8 0 -14 7 -14 15 0 8 6 15 14 15 8 0 22 3 32 7 14 5 16 2
12 -15 -7 -26 3 -27 40 -8 28 14 78 11 88 -5 3 -5 16 -9 29 -9 13 0 25 -6 28
-12 13 -37 17 19 15 196 l-3 197 -41 -29z m-1250 -191 c4 -5 -3 -7 -14 -4 -23
6 -26 13 -6 13 8 0 17 -4 20 -9z m753 -57 c13 -4 20 -11 16 -17 -4 -6 2 -8 15
-5 12 4 20 2 16 -3 -7 -12 -25 -11 -57 4 -43 19 -36 33 10 21z m-517 -44 c0
-5 -7 -10 -16 -10 -8 0 -12 5 -9 10 3 6 10 10 16 10 5 0 9 -4 9 -10z m535 -10
c21 -5 24 -8 10 -9 -20 -2 -20 -2 0 -17 11 -8 25 -12 32 -10 7 3 25 1 40 -4
15 -4 41 -11 57 -15 19 -4 25 -10 19 -16 -6 -6 -19 -6 -34 -1 -13 5 -63 15
-111 22 -49 7 -85 16 -82 21 3 5 15 9 27 10 17 0 14 4 -13 14 l-35 13 30 0
c17 0 44 -4 60 -8z m10 -110 c3 -5 -1 -10 -9 -10 -9 0 -16 5 -16 10 0 6 4 10
9 10 6 0 13 -4 16 -10z m-198 -116 c-3 -3 -12 -4 -19 -1 -8 3 -5 6 6 6 11 1
17 -2 13 -5z m46 -11 c-7 -2 -19 -2 -25 0 -7 3 -2 5 12 5 14 0 19 -2 13 -5z
m70 -30 c-7 -2 -19 -2 -25 0 -7 3 -2 5 12 5 14 0 19 -2 13 -5z"/>
<path d="M5170 3336 c0 -2 7 -6 15 -10 8 -3 15 -1 15 4 0 6 -7 10 -15 10 -8 0
-15 -2 -15 -4z"/>
<path d="M5368 3293 c6 -2 18 -2 25 0 6 3 1 5 -13 5 -14 0 -19 -2 -12 -5z"/>
<path d="M5420 3281 c0 -12 39 -25 47 -17 4 3 -1 6 -10 6 -9 0 -17 5 -17 10 0
6 -4 10 -10 10 -5 0 -10 -4 -10 -9z"/>
<path d="M5610 3280 c-12 -8 -11 -10 7 -10 12 0 25 5 28 10 8 13 -15 13 -35 0z"/>
<path d="M4893 3213 c9 -2 25 -2 35 0 9 3 1 5 -18 5 -19 0 -27 -2 -17 -5z"/>
<path d="M333 3203 c-14 -5 -18 -23 -5 -23 5 0 16 6 26 13 19 14 6 19 -21 10z"/>
<path d="M5258 3203 c6 -2 18 -2 25 0 6 3 1 5 -13 5 -14 0 -19 -2 -12 -5z"/>
<path d="M5340 3190 c0 -5 5 -10 10 -10 6 0 10 5 10 10 0 6 -4 10 -10 10 -5 0
-10 -4 -10 -10z"/>
<path d="M5370 3184 c0 -16 98 -74 122 -74 18 1 -19 28 -64 48 -21 9 -38 20
-38 24 0 5 -4 8 -10 8 -5 0 -10 -3 -10 -6z"/>
<path d="M3818 3173 c7 -3 16 -2 19 1 4 3 -2 6 -13 5 -11 0 -14 -3 -6 -6z"/>
<path d="M165 3160 c4 -6 11 -8 16 -5 14 9 11 15 -7 15 -8 0 -12 -5 -9 -10z"/>
<path d="M1279 3157 c5 -5 26 -7 47 -5 l39 3 -47 5 c-26 3 -43 1 -39 -3z"/>
<path d="M3740 3160 c0 -5 5 -10 10 -10 6 0 10 5 10 10 0 6 -4 10 -10 10 -5 0
-10 -4 -10 -10z"/>
<path d="M4148 3103 c6 -2 18 -2 25 0 6 3 1 5 -13 5 -14 0 -19 -2 -12 -5z"/>
<path d="M450 3040 c-98 -11 -140 -22 -134 -32 4 -6 30 -7 64 -3 35 4 73 2 96
-5 34 -10 199 -29 376 -44 32 -2 70 -1 85 3 l28 8 -30 15 c-34 18 -247 55
-350 62 -38 2 -99 0 -135 -4z"/>
<path d="M3315 3012 c14 -14 54 -19 57 -7 2 6 -13 11 -32 13 -23 2 -32 0 -25
-6z"/>
<path d="M3780 3001 c0 -15 29 -33 44 -28 8 3 17 1 20 -6 3 -9 5 -9 5 0 1 18
-28 43 -50 43 -10 0 -19 -4 -19 -9z"/>
<path d="M3868 3003 c6 -2 18 -2 25 0 6 3 1 5 -13 5 -14 0 -19 -2 -12 -5z"/>
<path d="M2382 2995 c8 -8 120 -36 156 -38 12 -1 22 -5 22 -8 0 -11 29 -6 34
6 3 8 -27 16 -88 24 -50 7 -100 15 -111 18 -11 3 -17 2 -13 -2z"/>
<path d="M4503 2933 c9 -2 23 -2 30 0 6 3 -1 5 -18 5 -16 0 -22 -2 -12 -5z"/>
<path d="M685 2920 c-4 -6 7 -10 27 -10 18 0 47 -4 64 -9 18 -5 37 -5 45 0 16
10 15 10 -26 14 -16 2 -47 6 -67 9 -20 4 -40 2 -43 -4z"/>
<path d="M2235 2905 c77 -18 149 -25 136 -12 -12 12 -96 26 -151 25 -32 0 -31
-1 15 -13z"/>
<path d="M1184 2899 c-6 -10 59 -18 69 -9 5 4 -8 10 -28 12 -20 2 -38 1 -41
-3z"/>
<path d="M4055 2883 c-24 -14 -26 -18 -12 -21 22 -5 87 17 87 29 0 14 -42 10
-75 -8z"/>
<path d="M1450 2880 c-8 -5 -42 -6 -75 -3 -126 12 -15 -23 179 -57 133 -23
129 -23 121 -10 -4 6 8 10 29 10 20 0 36 -4 36 -10 0 -5 11 -10 24 -10 13 0
27 -6 30 -12 5 -10 7 -10 12 0 4 8 28 12 72 11 l67 -2 -57 -6 c-31 -3 -60 -9
-64 -14 -9 -9 90 -14 156 -7 l25 2 -25 8 c-15 5 -18 8 -8 9 26 2 141 -29 165
-45 12 -8 37 -14 56 -14 18 0 38 -5 45 -12 7 -7 12 -9 12 -6 0 4 -6 13 -14 20
-11 12 -8 14 22 15 20 1 30 -2 23 -7 -9 -5 -3 -11 18 -18 17 -6 31 -7 31 -2 0
5 -8 11 -17 13 -11 3 -7 5 10 6 26 1 27 1 8 20 -20 20 -63 32 -131 36 -135 7
-240 18 -240 27 0 5 -15 8 -32 6 -48 -4 -310 13 -303 20 5 6 -125 42 -150 42
-5 0 -17 -5 -25 -10z m97 -36 c-3 -3 -12 -4 -19 -1 -8 3 -5 6 6 6 11 1 17 -2
13 -5z"/>
<path d="M2738 2873 c7 -3 16 -2 19 1 4 3 -2 6 -13 5 -11 0 -14 -3 -6 -6z"/>
<path d="M2869 2871 c7 -5 10 -14 7 -20 -5 -7 6 -11 32 -11 35 0 52 12 52 34
0 2 -24 4 -52 4 -34 1 -48 -1 -39 -7z"/>
<path d="M2976 2872 c-3 -5 11 -12 30 -15 20 -4 45 -14 55 -23 11 -10 22 -14
26 -10 4 4 1 11 -6 15 -11 7 -11 10 0 14 12 5 11 7 -1 16 -10 7 -17 6 -22 -2
-4 -7 -8 -8 -8 -2 0 13 -66 19 -74 7z"/>
<path d="M5233 2833 c9 -2 25 -2 35 0 9 3 1 5 -18 5 -19 0 -27 -2 -17 -5z"/>
<path d="M2905 2810 c3 -5 18 -10 32 -10 32 0 28 5 -10 14 -19 4 -26 3 -22 -4z"/>
<path d="M1318 2803 c6 -2 18 -2 25 0 6 3 1 5 -13 5 -14 0 -19 -2 -12 -5z"/>
<path d="M1068 2793 c12 -2 30 -2 40 0 9 3 -1 5 -23 4 -22 0 -30 -2 -17 -4z"/>
<path d="M53 2783 c15 -2 37 -2 50 0 12 2 0 4 -28 4 -27 0 -38 -2 -22 -4z"/>
<path d="M1718 2783 c6 -2 18 -2 25 0 6 3 1 5 -13 5 -14 0 -19 -2 -12 -5z"/>
<path d="M885 2760 c-32 -6 -24 -7 42 -9 45 0 85 3 88 9 7 11 -67 11 -130 0z"/>
<path d="M1986 2755 c-18 -14 -13 -15 55 -14 l74 1 -50 14 c-61 17 -56 17 -79
-1z"/>
<path d="M2908 2753 c12 -2 30 -2 40 0 9 3 -1 5 -23 4 -22 0 -30 -2 -17 -4z"/>
<path d="M5048 2733 c7 -3 16 -2 19 1 4 3 -2 6 -13 5 -11 0 -14 -3 -6 -6z"/>
<path d="M1550 2717 c0 -15 77 -44 130 -50 35 -4 80 -19 112 -37 23 -13 48
-13 48 0 0 6 -7 10 -15 10 -8 0 -15 5 -15 10 0 6 -7 10 -15 10 -8 0 -15 4 -15
9 0 12 -75 47 -120 56 -31 7 -33 6 -21 -9 17 -20 10 -20 -36 -1 -44 18 -53 19
-53 2z"/>
<path d="M2420 2699 c-19 -5 -14 -7 23 -8 26 -1 47 1 47 3 0 8 -46 12 -70 5z"/>
<path d="M2818 2693 c12 -2 30 -2 40 0 9 3 -1 5 -23 4 -22 0 -30 -2 -17 -4z"/>
<path d="M2055 2678 c-16 -4 -40 -6 -52 -3 -11 3 -43 2 -70 -2 l-48 -7 40 -9
c22 -4 58 -11 80 -14 37 -6 38 -7 15 -14 -15 -5 18 -7 80 -5 58 2 197 -3 310
-10 244 -16 243 -16 205 1 -16 8 -39 11 -50 9 -12 -3 -30 4 -45 18 -18 17 -35
22 -72 22 -26 0 -48 2 -48 5 0 3 -53 7 -117 7 -65 1 -136 4 -158 6 -22 3 -53
1 -70 -4z"/>
<path d="M2810 2650 c12 -9 -5 -10 -75 -6 -91 6 -146 -6 -92 -19 15 -4 27 -11
27 -15 0 -4 11 -11 25 -14 14 -4 25 -11 25 -16 0 -5 15 -9 33 -9 17 1 45 -4
60 -10 16 -6 44 -11 63 -11 19 0 43 -5 54 -12 10 -7 23 -8 27 -4 4 5 2 11 -4
13 -7 3 -13 9 -13 15 0 6 6 8 14 5 20 -8 28 4 13 21 -9 13 -9 14 1 8 8 -5 12
1 12 20 0 23 -3 26 -25 22 -25 -5 -103 5 -140 17 -17 6 -18 5 -5 -5z"/>
<path d="M3392 2528 c2 -5 20 -16 41 -23 31 -11 37 -10 37 1 0 8 7 14 15 14 8
0 15 -4 15 -10 0 -5 5 -10 11 -10 6 0 9 7 7 16 -2 13 -17 17 -66 20 -41 2 -62
-1 -60 -8z"/>
<path d="M2925 2490 c-3 -5 -1 -10 4 -10 6 0 11 5 11 10 0 6 -2 10 -4 10 -3 0
-8 -4 -11 -10z"/>
<path d="M3690 2483 c0 -11 22 -23 41 -23 5 0 9 7 9 16 0 13 -3 14 -13 5 -10
-8 -17 -7 -25 1 -8 8 -12 9 -12 1z"/>
<path d="M3857 2470 c-3 -11 -1 -20 4 -20 5 0 9 9 9 20 0 11 -2 20 -4 20 -2 0
-6 -9 -9 -20z"/>
<path d="M3887 2476 c-4 -10 -5 -21 -2 -24 9 -9 17 6 13 25 -3 17 -4 17 -11
-1z"/>
<path d="M3916 2465 c-3 -9 -6 -18 -6 -19 0 -1 33 -3 73 -4 56 -2 68 0 54 9
-10 6 -25 8 -32 5 -8 -3 -17 -1 -20 3 -3 5 -14 7 -26 4 -12 -3 -24 0 -29 6 -5
9 -9 8 -14 -4z"/>
<path d="M2640 2459 c0 -3 6 -6 13 -6 15 -1 110 -3 157 -3 19 0 52 -3 74 -6
46 -7 31 -23 -24 -25 l-35 -1 30 -8 c17 -4 42 -8 58 -9 24 -1 27 3 27 29 0 29
-1 30 -52 32 -111 4 -248 3 -248 -3z"/>
<path d="M2320 2441 c0 -5 9 -7 20 -4 11 3 20 7 20 9 0 2 -9 4 -20 4 -11 0
-20 -4 -20 -9z"/>
<path d="M2698 2433 c7 -3 16 -2 19 1 4 3 -2 6 -13 5 -11 0 -14 -3 -6 -6z"/>
<path d="M2743 2428 c-6 -10 65 -8 97 2 18 6 9 8 -33 7 -33 -1 -61 -5 -64 -9z"/>
<path d="M2568 2423 c6 -2 18 -2 25 0 6 3 1 5 -13 5 -14 0 -19 -2 -12 -5z"/>
<path d="M3690 2418 c0 -5 5 -8 10 -8 6 0 10 -6 10 -14 0 -7 7 -27 15 -42 l15
-29 0 51 c0 49 -1 52 -25 50 -14 0 -25 -4 -25 -8z"/>
<path d="M3861 2363 c-2 -37 -3 -79 -4 -93 -2 -20 3 -25 27 -27 20 -1 29 3 33
16 4 15 22 19 121 27 158 12 370 8 388 -7 11 -9 20 -8 40 5 14 10 33 15 42 13
11 -3 9 -5 -8 -7 l-25 -2 25 -7 c14 -3 169 -4 345 0 176 4 383 8 460 9 97 1
131 4 111 10 -16 5 -126 9 -245 9 -119 0 -234 1 -256 2 -39 1 -39 2 -10 9 17
4 -77 7 -207 6 -131 0 -238 -5 -238 -10 0 -5 -56 -5 -128 -2 -78 5 -159 3
-207 -3 -49 -7 -112 -8 -162 -3 l-82 8 -4 -36 c-4 -34 -4 -34 -5 7 -1 25 3 43
11 46 9 4 9 8 -2 15 -9 6 -11 17 -7 28 6 16 9 14 23 -14 19 -39 28 -37 13 3
-6 16 -8 35 -5 43 4 10 0 12 -12 8 -9 -4 -19 -2 -23 4 -4 7 -8 -19 -9 -57z
m49 -94 c0 -10 -4 -19 -10 -19 -5 0 -9 11 -8 24 3 28 18 24 18 -5z"/>
<path d="M2633 2413 c9 -2 23 -2 30 0 6 3 -1 5 -18 5 -16 0 -22 -2 -12 -5z"/>
<path d="M3917 2413 c-15 -14 -6 -31 12 -26 12 3 17 11 14 19 -6 15 -16 18
-26 7z"/>
<path d="M3822 2399 c2 -6 8 -10 13 -10 5 0 11 4 13 10 2 6 -4 11 -13 11 -9 0
-15 -5 -13 -11z"/>
<path d="M4040 2401 c-43 -6 -42 -7 34 -15 52 -5 81 -4 85 2 3 6 24 12 46 15
22 2 4 4 -40 4 -44 0 -100 -3 -125 -6z"/>
<path d="M4618 2403 c7 -3 16 -2 19 1 4 3 -2 6 -13 5 -11 0 -14 -3 -6 -6z"/>
<path d="M4678 2383 c23 -2 59 -2 80 0 20 2 1 4 -43 4 -44 0 -61 -2 -37 -4z"/>
<path d="M3503 2355 c-12 -8 -21 -24 -20 -35 1 -23 17 -28 17 -6 0 8 5 18 12
22 7 4 8 3 4 -4 -5 -8 -2 -10 9 -6 9 4 13 9 11 12 -3 3 2 11 12 18 16 12 16
13 -3 14 -11 0 -30 -7 -42 -15z"/>
<path d="M2745 2302 c-5 -4 -11 -15 -11 -25 -2 -14 3 -16 20 -11 27 9 38 26
23 36 -15 10 -19 10 -32 0z m25 -12 c0 -5 -4 -10 -10 -10 -5 0 -10 5 -10 10 0
6 5 10 10 10 6 0 10 -4 10 -10z"/>
<path d="M3512 2299 c5 -17 88 -26 88 -10 0 6 -13 11 -29 11 -16 0 -37 3 -47
7 -12 4 -15 2 -12 -8z"/>
<path d="M5693 2293 c9 -2 23 -2 30 0 6 3 -1 5 -18 5 -16 0 -22 -2 -12 -5z"/>
<path d="M3503 2255 c0 -28 12 -41 22 -25 3 5 2 10 -4 10 -6 0 -8 6 -5 14 3 8
1 17 -4 20 -5 3 -9 -6 -9 -19z"/>
<path d="M2520 2240 c-11 -7 -5 -8 20 -4 43 8 51 14 19 14 -13 0 -31 -5 -39
-10z"/>
<path d="M2608 2243 c7 -3 16 -2 19 1 4 3 -2 6 -13 5 -11 0 -14 -3 -6 -6z"/>
<path d="M2645 2235 c-25 -12 -26 -14 -5 -9 14 4 29 10 35 15 12 12 5 11 -30
-6z"/>
<path d="M2568 2223 c6 -2 18 -2 25 0 6 3 1 5 -13 5 -14 0 -19 -2 -12 -5z"/>
<path d="M5788 1793 c7 -3 16 -2 19 1 4 3 -2 6 -13 5 -11 0 -14 -3 -6 -6z"/>
<path d="M5600 1748 c0 -6 3 -8 7 -5 3 4 11 3 17 -1 6 -5 21 -3 34 3 22 12 21
13 -17 13 -24 1 -41 -4 -41 -10z"/>
<path d="M5698 1748 c5 -5 16 -8 23 -6 8 3 3 7 -10 11 -17 4 -21 3 -13 -5z"/>
<path d="M5820 1730 c-8 -5 -10 -10 -5 -10 6 0 17 5 25 10 8 5 11 10 5 10 -5
0 -17 -5 -25 -10z"/>
</g>
</svg>
